<?xml version="1.0" encoding="UTF-8" standalone="no"?>

<svg
   version="1.1"
   id="svg1"
   width="4184"
   height="4076"
   viewBox="0 0 4184 4076"
   xmlns="http://www.w3.org/2000/svg"
   xmlns:svg="http://www.w3.org/2000/svg">
  <defs
     id="defs1" />
  <g
     id="g1">
    <g
       id="g2"
       transform="translate(128.37272,28.527275)">
      <path
         style="fill:#e8590c"
         d="m 2069,4011.9305 c -13.8507,-1.5213 -30.8879,-4.6479 -40.3683,-7.4082 -26.2529,-7.6438 -59.6376,-24.3331 -82.6317,-41.3084 -13.3687,-9.8693 -39.1185,-35.1851 -46.4976,-45.7139 -2.6983,-3.85 -6.7882,-9.4857 -9.0886,-12.5238 -5.8939,-7.7839 -22.7833,-41.8138 -25.7964,-51.9762 -1.3861,-4.675 -3.6776,-12.4247 -5.0923,-17.2215 -1.4146,-4.7968 -3.574,-9.8723 -4.7986,-11.2789 -2.6177,-3.0067 -5.8347,-3.6122 -31.7265,-5.9719 -22.4337,-2.0445 -53.6943,-6.0334 -66.5,-8.4855 -5.5,-1.0532 -15.4,-2.6553 -22,-3.5604 -6.6,-0.905 -14.25,-2.0688 -17,-2.5862 -2.75,-0.5173 -10.7796,-1.8269 -17.8436,-2.9101 -7.064,-1.0832 -21.014,-3.8008 -31,-6.039 -9.986,-2.2383 -29.8564,-6.5013 -44.1564,-9.4734 -27.0647,-5.6251 -83.5266,-19.7104 -106,-26.4433 -7.15,-2.1421 -20.9955,-6.1846 -30.7678,-8.9832 -32.4004,-9.2791 -104.2437,-35.1636 -131.2322,-47.2819 -5.5,-2.4696 -21.025,-9.3207 -34.5,-15.2247 -13.475,-5.904 -32.375,-14.4803 -42,-19.0584 -9.625,-4.5782 -20.425,-9.6323 -24,-11.2314 -9.8633,-4.4118 -45.2516,-23.1564 -56.5194,-29.9374 -5.4893,-3.3035 -16.9556,-9.8491 -25.4806,-14.5457 -25.9353,-14.2884 -58.4309,-33.5444 -70.5,-41.7764 -2.2,-1.5006 -9.85,-6.2281 -17,-10.5057 -7.15,-4.2775 -14.8,-9.2118 -17,-10.9651 -2.2,-1.7533 -6.1113,-4.4149 -8.6918,-5.9148 -2.5805,-1.4998 -9.7805,-6.3139 -16,-10.698 -6.2195,-4.3842 -17.5452,-12.3443 -25.1681,-17.6891 -7.6229,-5.3449 -16.6229,-11.8416 -19.99999,-14.4371 -3.37706,-2.5955 -9.06511,-6.8295 -12.64011,-9.409 -15.84679,-11.434 -39.75475,-29.7305 -58.5,-44.7694 -14.44611,-11.5899 -46.74038,-38.9626 -48.5,-41.1087 -0.825,-1.0063 -11.625,-10.8528 -24,-21.8811 -22.24042,-19.8203 -100.13551,-96.8563 -117.44141,-116.1462 -4.91778,-5.4816 -13.31374,-14.4665 -18.65768,-19.9665 -5.34395,-5.5 -12.79532,-13.6867 -16.55859,-18.1926 -3.76328,-4.5059 -12.05691,-14.1809 -18.4303,-21.5 -12.12627,-13.9256 -23.29485,-27.6813 -38.41202,-47.3101 -4.95,-6.4273 -11.84687,-15.3561 -15.32638,-19.8417 C 616.03351,3121.1378 612,3115.6175 612,3114.4145 c 0,-0.7044 -1.94916,-2.8778 -4.33147,-4.8299 -2.38232,-1.9521 -5.61233,-5.9198 -7.17781,-8.817 -1.56547,-2.8972 -4.67881,-7.6533 -6.91852,-10.5692 -5.39584,-7.0248 -20.45673,-28.9418 -37.2439,-54.1984 -27.12309,-40.8071 -35.9733,-54.6053 -47.14333,-73.5 -3.57659,-6.05 -10.66816,-17.75 -15.75903,-26 -5.09088,-8.25 -11.71027,-19.5 -14.70976,-25 -2.99949,-5.5 -10.44461,-19.0844 -16.54471,-30.1875 -13.05008,-23.7532 -25.84032,-49.7064 -47.71094,-96.8125 -6.29658,-13.5619 -22.23682,-50.3786 -26.44781,-61.0858 -2.61425,-6.6472 -5.90793,-14.7472 -7.31929,-18 -17.32664,-39.9335 -51.34137,-135.7581 -62.26657,-175.4142 -2.50014,-9.075 -6.27624,-22.35 -8.39132,-29.5 -9.79852,-33.1237 -24.27746,-95.3393 -30.59866,-131.4815 -1.39659,-7.9852 -4.05909,-22.3935 -5.91667,-32.0185 -1.85758,-9.625 -4.08661,-22 -4.9534,-27.5 -9.90832,-62.8709 -9.42905,-59.1348 -13.02044,-101.5 -7.83784,-92.4575 -8.66652,-221.1343 -2.03826,-316.5 3.97127,-57.1376 8.1685,-90.4414 19.53445,-155 2.22711,-12.65 5.82654,-33.4721 7.99872,-46.2714 2.17219,-12.7993 5.738,-31.3369 7.92403,-41.1946 6.34579,-28.6158 21.07376,-85.441 25.53806,-98.534 0.75014,-2.2 2.80471,-8.95 4.56571,-15 5.03607,-17.3016 24.21786,-73.8553 29.16931,-86 8.23914,-20.2085 12.97298,-30.9613 15.6286,-35.5 l 2.63301,-4.5 0.29881,3.055 c 0.16435,1.6802 -1.27985,11.1302 -3.20934,21 -3.25755,16.6631 -6.38011,35.2611 -13.08682,77.945 -1.46912,9.35 -3.99795,24.2 -5.61963,33 -6.09029,33.0489 -10.8239,81.4687 -13.93107,142.5 -0.60202,11.825 -1.49692,28.925 -1.98867,38 -1.72098,31.76 -2.29165,106.2948 -1.06042,138.5 3.03311,79.3365 10.5296,178.2159 15.08708,199 0.48241,2.2 2.51369,15.475 4.51394,29.5 2.00026,14.025 5.18821,35.175 7.08432,47 3.72247,23.2149 5.1068,30.286 15.95544,81.5 6.58168,31.0707 20.91106,89.2091 27.23492,110.5 1.06185,3.575 5.17213,17.525 9.13394,31 3.96182,13.475 9.17673,30.575 11.5887,38 2.41196,7.425 6.63144,20.475 9.37661,29 8.1085,25.1806 25.44239,70.8444 44.60279,117.5 10.82898,26.3686 14.37497,34.065 34.93119,75.816 11.32352,22.9988 20.58821,41.9439 20.58821,42.1001 0,0.1563 4.33266,8.5641 9.62812,18.684 5.29547,10.12 14.89623,28.5249 21.33502,40.8999 11.44223,21.9913 39.19151,70.4043 49.67133,86.6594 2.89324,4.4877 9.61756,15.2877 14.94292,24 8.95997,14.6586 34.02945,52.3573 48.10614,72.3406 23.01985,32.679 41.07196,57.2946 52.80195,72 2.85165,3.575 12.16591,15.275 20.69834,26 8.53244,10.725 24.46912,29.5932 35.41485,41.9293 10.94573,12.3361 23.68976,26.7361 28.32007,32 33.25974,37.8108 106.77837,112.1166 134.08126,135.517 55.75453,47.7852 50.12634,43.0427 76.0963,64.1212 15.3564,12.464 59.6213,45.7445 78.4037,58.9477 21.6897,15.2469 59.4695,40.2521 75.5,49.971 7.975,4.8351 20.35,12.4758 27.5,16.9793 58.0825,36.584 134.504,75.6735 199.5,102.0439 8.525,3.4588 19.325,7.9458 24,9.9711 26.5462,11.5005 103.2603,37.7483 146.5,50.1252 33.5981,9.617 92.8956,23.9256 119.5,28.8356 25.3301,4.6748 71.2393,12.0729 90,14.5033 29.6553,3.8416 93.5578,11.1288 102.5,11.6887 l 9,0.5635 8.6903,-10.8484 c 14.9896,-18.7119 40.602,-42.3911 56.3097,-52.0593 4.95,-3.0468 11.25,-7.1401 14,-9.0962 5.5864,-3.9737 33.2121,-17.0587 44,-20.8408 9.913,-3.4754 31.7075,-8.7381 47.5176,-11.4742 17.5164,-3.0314 49.2968,-3.3032 66.4824,-0.5685 14.893,2.3698 32.1059,6.277 43.0828,9.7793 21.5535,6.8771 59.8306,28.0749 79.7432,44.1617 9.2368,7.4621 15.9509,10.9953 20.7679,10.9289 11.9822,-0.1654 79.0846,-18.3668 112.6796,-30.5642 8.0996,-2.9407 19.9015,-7.0369 26.2265,-9.1027 6.325,-2.0658 17.575,-6.1436 25,-9.0617 35.8588,-14.0929 42.7785,-16.8533 60,-23.9349 17.9075,-7.3638 22.8501,-9.534 48.5,-21.2954 24.8415,-11.3908 61.5311,-30.0267 88,-44.6983 7.15,-3.9632 16.15,-8.9197 20,-11.0144 13.9664,-7.5989 34.3997,-20.1531 53,-32.5634 19.9196,-13.2904 30.0219,-19.8579 47.6068,-30.9491 36.6311,-23.104 101.5932,-74.2728 148.3644,-116.8625 87.0042,-79.2254 147.0828,-145.5759 230.1107,-254.1327 18.159,-23.7424 33.5831,-41.5054 41.4181,-47.6986 6.5454,-5.1739 24.9911,-14.8398 30.1645,-15.8069 3.1865,-0.5956 3.8757,-0.3628 5.2828,1.7847 1.498,2.2863 1.4858,2.8675 -0.1646,7.8287 -1.6006,4.8118 -2.2099,5.5157 -5.9663,6.8925 -2.301,0.8434 -4.4749,1.8248 -4.831,2.1809 -1.0886,1.0885 1.3615,4.6152 4.4904,6.4635 1.6288,0.9622 3.2095,2.3957 3.5126,3.1857 1.604,4.1799 -7.6253,34.5138 -17.8838,58.7784 -27.1492,64.2165 -78.1141,148.4858 -133.8682,221.348 -23.557,30.7856 -60.4601,75.4367 -75.241,91.0385 -4.9525,5.2275 -13.4872,14.6796 -18.9661,21.0046 -35.7912,41.3186 -77.5762,83.532 -118.3753,119.589 -39.2232,34.6643 -57.3844,49.3443 -99.9378,80.7811 -37.2708,27.5344 -51.9732,37.4359 -89.7162,60.4206 -7.7,4.6892 -17.6,10.8466 -22,13.6831 -10.4306,6.7243 -40.7188,23.4797 -66.5,36.7877 -16.6588,8.5991 -65.1646,31.7385 -66.5317,31.7385 -0.1936,0 -5.6657,2.514 -12.1602,5.5867 -10.505,4.9702 -25.7518,11.5682 -50.8642,22.0112 -11.9743,4.9796 -37.3192,14.6416 -60.243,22.9659 -24.4222,8.8685 -31.9873,12.6592 -33.7277,16.9004 -0.6851,1.6697 -1.989,12.0358 -2.8975,23.0358 -2.7945,33.8334 -6.0213,50.5163 -13.9264,72 -8.1382,22.117 -13.1789,31.2861 -28.6341,52.0864 -19.5159,26.2653 -46.1298,50.1931 -74.3786,66.8719 -14.4712,8.5441 -24.1788,12.8773 -46.6366,20.8173 -26.5134,9.374 -40.423,11.7195 -72.5,12.2256 -12.65,0.1996 -26.825,-0.057 -31.5,-0.5707 z m 49.4288,-147.9123 c 20.3161,-5.196 49.2744,-26.14 60.0463,-43.4284 6.245,-10.023 13.0115,-24.7198 15.6951,-34.0898 1.9929,-6.9584 2.2871,-10.2135 2.2595,-25 -0.03,-15.8322 -0.217,-17.5332 -2.7278,-24.7623 -3.257,-9.3774 -11.5853,-26.1992 -16.7034,-33.7383 -2.0538,-3.0253 -8.1916,-9.7753 -13.6394,-15 -8.4889,-8.1411 -11.6178,-10.3829 -21.8822,-15.6784 -6.5873,-3.3984 -15.3519,-7.1144 -19.4769,-8.2578 -15.5775,-4.3177 -40.9767,-3.6729 -55.9516,1.4203 -26.2452,8.9266 -47.1772,26.5008 -59.0166,49.5496 -16.1859,31.5107 -16.689,59.905 -1.6204,91.4669 5.564,11.6541 17.7591,28.1161 25.2371,34.0672 12.0323,9.5755 24.4111,17.077 35.5815,21.5623 12.7188,5.107 36.2819,5.9596 52.1988,1.8887 z M 2389,3865.5918 c 0,-0.9077 13.134,-7.5412 22.5115,-11.3698 5.4937,-2.2429 20.1135,-8.3354 32.4885,-13.5388 12.375,-5.2034 29.5287,-12.4124 38.1194,-16.02 8.5906,-3.6076 19.6156,-8.4298 24.5,-10.7159 4.8843,-2.2862 14.2806,-6.399 20.8806,-9.1396 6.6,-2.7405 21.675,-9.5514 33.5,-15.1352 23.4565,-11.0762 133.9054,-66.0956 146,-72.7289 7.6897,-4.2175 34.9993,-19.3756 59,-32.748 12.876,-7.1741 34.5255,-19.8957 42,-24.6799 1.925,-1.2321 11.15,-6.8469 20.5,-12.4772 9.35,-5.6303 21.05,-12.96 26,-16.2881 4.95,-3.3281 13.725,-9.2292 19.5,-13.1136 23.1684,-15.5834 65.9877,-46.2171 84.8149,-60.6779 6.7731,-5.2024 15.5939,-11.7089 19.6018,-14.4589 4.0078,-2.75 11.6969,-8.6 17.0869,-13 5.39,-4.4 14.1192,-11.5201 19.3982,-15.8225 31.9579,-26.0456 66.9081,-56.5334 100.5982,-87.7539 22.7988,-21.1276 112.8713,-111.7711 129.1052,-129.9236 23.5665,-26.3517 59.4969,-68.039 66.754,-77.4494 3.9274,-5.0928 11.9334,-15.1289 17.791,-22.3025 5.8577,-7.1735 13.0293,-16.5764 15.9371,-20.8954 2.9077,-4.319 7.6647,-10.7777 10.5712,-14.3527 7.0505,-8.6724 18.3019,-24.0229 27.4863,-37.5 4.1229,-6.05 11.4852,-16.625 16.3607,-23.5 7.9234,-11.1731 17.8361,-25.6273 39.9945,-58.3182 9.3025,-13.7242 18.8593,-31.3031 18.0974,-33.2885 -0.3311,-0.8628 -2.8879,-4.7918 -5.6819,-8.731 -6.608,-9.3167 -20.1661,-31.3854 -24.3668,-39.6623 -4.8886,-9.6324 -9.8679,-23.5765 -15.0157,-42.0507 -6.8653,-24.6379 -7.6961,-30.3751 -8.2705,-57.1137 -0.5261,-24.4948 0.517,-41.1035 3.4126,-54.3356 4.1975,-19.1812 12.2999,-44.5313 17.5792,-55 5.3736,-10.6558 23.5929,-40.0381 29.8456,-48.1321 8.0959,-10.48 24.4059,-27.269 34.9001,-35.9252 7.8,-6.4338 11.0889,-8.867 26.8642,-19.8746 5.7828,-4.0351 35.1423,-18.9083 44.1358,-22.3587 8.2871,-3.1794 20.5428,-6.5825 40.5,-11.2459 21.4258,-5.0067 23.9216,-5.938 25.8192,-9.6347 2.2813,-4.4441 14.4016,-59.3309 24.6945,-111.8288 2.1567,-11 6.2018,-30.575 8.989,-43.5 11.2919,-52.3619 24.4651,-145.0318 28.0041,-197 7.5841,-111.369 4.0917,-195.3734 -12.6178,-303.5 -7.2029,-46.6092 -12.7457,-74.1361 -21.8475,-108.5 -0.8012,-3.025 -3.7131,-15.4 -6.4709,-27.5 -7.2154,-31.6577 -18.4133,-71.3912 -30.6527,-108.7646 -11.9586,-36.5162 -13.509,-41.0955 -18.3613,-54.2354 -2.6403,-7.15 -6.9396,-18.85 -9.5541,-26 -8.3942,-22.9571 -24.1253,-61.5194 -32.0231,-78.5 -18.7175,-40.2434 -24.3206,-51.7959 -34.9211,-72 -10.9302,-20.8325 -23.339,-43.0992 -32.0439,-57.5 -2.3273,-3.85 -5.8331,-9.925 -7.7908,-13.5 -1.9577,-3.575 -7.0838,-11.9914 -11.3915,-18.703 -9.7646,-15.2139 -20.7521,-32.7736 -25.8405,-41.297 -2.1342,-3.575 -7.7365,-11.45 -12.4494,-17.5 -4.7129,-6.05 -11.2428,-15.0335 -14.5109,-19.9632 -3.2681,-4.9298 -7.7621,-11.2315 -9.9867,-14.0037 -6.6231,-8.2538 -12.2098,-15.8706 -13.5741,-18.5067 -0.7041,-1.3605 -3.3756,-4.7355 -5.9367,-7.5 -2.561,-2.7645 -6.7206,-7.9514 -9.2433,-11.5264 -2.5228,-3.575 -6.0294,-7.85 -7.7923,-9.5 -1.763,-1.65 -4.7474,-5.3925 -6.6321,-8.3167 -1.8846,-2.9242 -5.3492,-7.1992 -7.6991,-9.5 -2.3498,-2.3008 -5.6615,-6.2171 -7.3593,-8.703 -4.4009,-6.4437 -32.8787,-39.2837 -52.3077,-60.3201 -37.3207,-40.4083 -71.452,-74.4392 -95,-94.7206 -8.525,-7.3424 -22.7,-19.6787 -31.5,-27.4139 -8.8,-7.7353 -19.2767,-16.7555 -23.2815,-20.0449 -17.6024,-14.458 -29.1087,-23.77388 -34.2185,-27.7043 -3.025,-2.3268 -8.65,-6.73084 -12.5,-9.78677 -11.7982,-9.36477 -46.7475,-34.41695 -67.5,-48.38489 -6.875,-4.62738 -21.95,-14.777 -33.5,-22.55472 -33.2485,-22.38934 -91.1501,-56.91632 -125.5,-74.83618 -47.5617,-24.81228 -81.7948,-41.58098 -110,-53.88225 -6.875,-2.99843 -17,-7.40986 -22.5,-9.80317 -5.5,-2.39331 -16.75,-6.92816 -25,-10.07745 -8.25,-3.1493 -17.1782,-6.81733 -19.8404,-8.15119 -5.7504,-2.88113 -55.3072,-20.60081 -87.1596,-31.16504 -41.7923,-13.86094 -56.9927,-19.74422 -72.8369,-28.19148 -19.3829,-10.33392 -21.117,-11.75918 -20.3156,-16.69748 0.3237,-1.99448 1.3904,-4.40429 2.3705,-5.35514 3.0883,-2.99614 21.981,-11.88542 27.4747,-12.92729 6.8828,-1.30528 38.3123,-1.27762 52.3073,0.046 33.6224,3.18004 98.9505,14.41403 142,24.41869 6.05,1.40602 19.325,4.36569 29.5,6.57705 10.175,2.21137 25.025,6.00403 33,8.42814 7.975,2.42411 22.6,6.69211 32.5,9.48443 31.1192,8.77726 102.2722,33.90653 125.8625,44.45117 3.2244,1.44127 12.2244,5.14696 20,8.23488 15.4374,6.13062 41.2046,17.72285 63.1375,28.40446 58.6838,28.5798 78.6054,39.51477 149.7794,82.21389 49.3816,29.62532 91.7237,59.36187 146.2206,102.68973 34.6513,27.5496 56.0635,46.15931 98,85.17331 37.158,34.5685 88.012,92.2543 128.6394,145.9208 31.9106,42.1521 86.9626,123.1852 104.6199,153.994 5.2012,9.075 11.6062,20.1 14.2335,24.5 13.2381,22.1707 44.1272,83.1653 58.6931,115.8975 12.9034,28.9964 21.8886,51.8061 42.3869,107.6025 19.5447,53.2007 36.7428,112.4792 48.4505,167 1.9488,9.075 4.6234,21 5.9436,26.5 4.1384,17.2409 9.3816,44.61 12.9313,67.5 0.8103,5.225 2.4093,15.35 3.5534,22.5 2.4584,15.3641 6.3285,41.4467 9.0511,61 2.7296,19.6043 6.7479,62.8766 11.0504,119 0.506,6.6 1.2108,33.15 1.5663,59 0.6594,47.9487 -0.1333,75.6378 -3.1349,109.5 -0.8044,9.075 -2.6017,31.35 -3.9941,49.5 -3.7296,48.6165 -5.8933,68.4203 -12.5645,115 -7.5333,52.5984 -14.2201,93.1005 -17.4549,105.7244 -1.3704,5.3484 -4.2699,18.6234 -6.4432,29.5 -2.1734,10.8766 -5.5302,25.8506 -7.4596,33.2756 -1.9295,7.425 -6.8837,26.775 -11.0093,43 -4.1256,16.225 -9.0891,34.2009 -11.03,39.9465 -1.9409,5.7455 -3.5289,11.3653 -3.5289,12.4883 0,1.2928 5.4665,7.5478 14.9038,17.0535 22.8175,22.9827 26.1271,27.2599 42.1794,54.5117 12.9276,21.947 27.969,66.4121 30.8226,91.1172 2.195,19.0035 1.7953,44.9585 -0.9606,62.3828 -1.0354,6.5469 -6.9292,29.9247 -8.9498,35.5 -2.2846,6.3038 -8.398,22.2036 -11.1504,29 -5.8453,14.434 -18.3586,35.921 -28.8271,49.5 -9.2064,11.9418 -31.2772,34.0444 -42.0359,42.0966 -29.8227,22.32 -64.2801,38.8843 -95.4139,45.867 -30.677,6.8803 -60.4008,7.1963 -94.8111,1.0079 -19.3405,-3.4782 -20.4476,-3.4007 -25.4248,1.7785 -2.2463,2.3375 -10.3679,12.841 -18.048,23.3412 -7.6802,10.5001 -19.7871,26.2501 -26.9044,35 -7.1173,8.7498 -16.1271,20.1838 -20.0218,25.4088 -3.8947,5.225 -11.536,14.675 -16.9807,21 -5.4447,6.325 -13.2529,15.55 -17.3516,20.5 -13.0538,15.7653 -35.0582,40.6394 -46.0007,52 -5.8274,6.05 -15.7467,16.625 -22.043,23.5 -26.3105,28.7288 -47.0641,49.761 -73.405,74.3909 -15.3577,14.36 -29.7577,28.078 -32,30.4844 -8.7967,9.4405 -43.7475,40.4521 -65.0478,57.7164 -5.3664,4.3496 -13.1933,10.7045 -17.3931,14.1221 -4.1999,3.4176 -10.4941,8.3676 -13.9873,11 -3.4931,2.6324 -9.902,7.4862 -14.242,10.7862 -75.6799,57.5444 -105.0435,78.6011 -152.6981,109.5 -10.6032,6.875 -26.6992,17.3311 -35.769,23.2359 -9.0699,5.9047 -22.4417,14.0554 -29.7152,18.1126 -7.2735,4.0573 -17.7245,9.9796 -23.2245,13.1607 -32.6516,18.885 -54.4497,30.8237 -83.5,45.7324 -37.3972,19.1923 -104.3572,50.0425 -139.5,64.2711 -9.9,4.0083 -20.25,8.2807 -23,9.494 -2.75,1.2134 -13.775,5.491 -24.5,9.5058 -10.725,4.0148 -21.75,8.2768 -24.5,9.4712 -19.379,8.4166 -89.0834,30.7108 -132.6978,42.442 C 2481.1443,3851.0515 2389,3869.2259 2389,3865.5918 Z m 1283.9489,-915.0991 c 10.7229,-3.0346 26.669,-10.6875 35.5511,-17.0616 26.0678,-18.7075 41.0361,-48.7171 40.8659,-81.9311 -0.2103,-41.0379 -18.5797,-69.7406 -56.4788,-88.2495 -21.0092,-10.2603 -51.5575,-12.5553 -75.6619,-5.6841 -10.0566,2.8667 -16.222,5.8761 -29.5476,14.4223 -9.304,5.967 -12.6717,9.3755 -23.0258,23.3047 -4.066,5.4699 -11.1929,21.0101 -13.5461,29.5375 -7.689,27.862 -3.0604,60.9099 11.7374,83.805 14.8107,22.9151 38.3756,38.9736 64.491,43.9481 11.7245,2.2333 33.9313,1.2152 45.6148,-2.0913 z m -1589.2442,346.1719 c -5.3874,-1.8899 -12.3624,-5.01 -15.5,-6.9335 -3.1376,-1.9236 -9.0797,-5.182 -13.2047,-7.2409 -4.125,-2.0589 -10.65,-5.7817 -14.5,-8.2728 -16.3371,-10.5709 -63.7761,-39.1298 -81,-48.7631 -6.05,-3.3838 -15.275,-8.633 -20.5,-11.6649 -8.2954,-4.8136 -28.989,-16.171 -51.4427,-28.2336 -3.8185,-2.0514 -11.6935,-6.7262 -17.5,-10.3885 -5.8065,-3.6623 -16.1823,-9.6241 -23.0573,-13.2485 -11.8234,-6.2331 -32.8861,-18.122 -45,-25.4001 -5.7384,-3.4477 -27.9412,-16.0288 -48.5,-27.4823 -6.6,-3.6769 -17.175,-9.8436 -23.5,-13.7038 -11.8558,-7.2355 -27.2821,-16.2813 -50.023,-29.3326 -35.1771,-20.1886 -36.8343,-21.3235 -35.6488,-24.413 0.6259,-1.631 26.5941,-19.2225 36.1718,-24.5037 3.3,-1.8196 10.95,-6.4357 17,-10.2579 17.8895,-11.302 28.3596,-17.7586 39.5,-24.3581 21.3168,-12.6281 38.8854,-23.6143 53.5,-33.4552 15.311,-10.3098 29.5702,-19.3987 46.5,-29.6393 25.5156,-15.434 62.6751,-38.7143 90,-56.3846 9.625,-6.2242 22.225,-14.3156 28,-17.9808 5.775,-3.6652 27.375,-17.8284 48,-31.4738 42.9807,-28.4358 61.9257,-40.9121 74,-48.7329 26.386,-17.0909 56.5932,-37.5912 65.6757,-44.5713 4.3034,-3.3073 10.9356,-7.9021 14.7382,-10.2108 3.8027,-2.3087 9.4056,-6.0384 12.4509,-8.2881 3.0453,-2.2497 9.6091,-6.7754 14.5861,-10.057 4.977,-3.2817 11.0741,-7.6177 13.5491,-9.6357 2.475,-2.018 6.814,-5.068 9.6422,-6.7779 2.8283,-1.7098 9.6228,-6.4053 15.0989,-10.4343 17.3278,-12.7489 38.1546,-27.1954 74.991,-52.0177 57.381,-38.6664 81.9229,-55.3711 95.2679,-64.8453 6.875,-4.8808 17.225,-12.14 23,-16.1315 13.1894,-9.1161 30.8403,-21.9646 47,-34.2123 13.6921,-10.3775 33.2921,-24.4484 56.5,-40.5615 20.5032,-14.2352 28.8695,-20.2813 50.4528,-36.4609 17.8299,-13.3658 26.0149,-19.7313 45.5472,-35.422 4.95,-3.9764 11.8357,-8.6406 15.3016,-10.3648 5.4853,-2.7289 6.4882,-2.9484 7.7419,-1.6947 1.6218,1.6218 2.6089,10.4773 5.0033,44.8851 0.8612,12.375 2.2023,31.275 2.9802,42 0.7779,10.725 2.3188,37.05 3.4242,58.5 3.5324,68.5446 4.1164,79.3624 6.0733,112.5 1.0555,17.875 2.8392,51.625 3.9637,75 1.1245,23.375 2.9349,60.5 4.0231,82.5 3.8596,78.0261 5.3791,186.7183 2.6936,192.6706 -1.5906,3.5256 -13.4526,12.5495 -24.9639,18.9913 -5.0826,2.8441 -11.041,6.3725 -13.241,7.8407 -2.2,1.4682 -9.85,5.9577 -17,9.9768 -7.15,4.019 -14.8,8.5054 -17,9.9698 -2.2,1.4644 -10.075,6.1522 -17.5,10.4174 -16.3973,9.4192 -24.2815,14.0114 -38,22.1332 -5.775,3.419 -15.45,8.9189 -21.5,12.222 -10.5748,5.7735 -14.4334,8.0131 -38.2338,22.1921 -5.9214,3.5277 -14.8162,8.656 -19.7662,11.3962 -4.95,2.7403 -12.825,7.3242 -17.5,10.1865 -14.9946,9.1805 -34.1532,20.5597 -47.0514,27.9462 -6.9033,3.9533 -14.5533,8.5497 -17,10.2141 -2.4467,1.6645 -8.4986,5.2045 -13.4486,7.8667 -4.95,2.6621 -15.975,9.1762 -24.5,14.4756 -8.525,5.2995 -20.225,12.1191 -26,15.1546 -17.3028,9.095 -35.0373,18.8805 -42.935,23.6907 -4.0893,2.4905 -12.8643,7.5326 -19.5,11.2045 -15.5431,8.6009 -43.339,24.6979 -46.565,26.9665 -1.375,0.967 -7.675,4.5735 -14,8.0145 -6.325,3.4411 -13.3,7.4746 -15.5,8.9634 -7.8152,5.2888 -42.1258,22.8307 -50,25.5633 -6.5826,2.2844 -10.1261,2.8443 -20,3.1601 -11.5821,0.3705 -12.3412,0.2642 -21.7953,-3.0522 z M 1542,2985.3667 c -7.425,-4.1648 -16.425,-9.5043 -20,-11.8656 -3.575,-2.3612 -11.225,-6.8644 -17,-10.007 -5.775,-3.1425 -16.575,-9.4324 -24,-13.9775 -12.7889,-7.8284 -18.5975,-11.1712 -49.5,-28.486 -7.15,-4.0062 -15.475,-8.7501 -18.5,-10.542 -3.025,-1.7918 -9.75,-5.3832 -14.9443,-7.9809 -5.1944,-2.5976 -12.6194,-6.6427 -16.5,-8.9891 -8.2512,-4.989 -29.8568,-17.3643 -50.9805,-29.2008 -8.2086,-4.5997 -15.4086,-8.7567 -16,-9.2379 -0.5914,-0.4811 -6.2502,-3.6819 -12.5752,-7.1127 -6.325,-3.4309 -17.575,-9.9341 -25,-14.4515 -7.425,-4.5174 -18,-10.807 -23.5,-13.9769 -18.777,-10.8218 -48.8081,-28.9114 -62.5,-37.6477 -3.025,-1.9301 -9.1,-5.4533 -13.5,-7.8293 -4.4,-2.376 -13.175,-7.3614 -19.5,-11.0787 -6.325,-3.7172 -19.6,-11.5092 -29.5,-17.3155 -18.3082,-10.7375 -26.7038,-15.8827 -41,-25.1265 -7.5913,-4.9084 -11.7129,-7.4358 -41.5828,-25.499 -6.9206,-4.1851 -14.3456,-9.0031 -16.5,-10.7067 -2.1545,-1.7036 -8.0534,-5.8622 -13.1088,-9.2412 -18.18599,-12.1557 -30.81895,-30.0193 -36.04359,-50.9674 -1.51048,-6.0563 -1.68299,-28.4507 -2.00377,-260.1268 -0.19305,-139.425 -0.0854,-254.9625 0.23929,-256.75 0.37594,-2.0698 1.1725,-3.25 2.19355,-3.25 0.88179,0 5.4739,2.0817 10.20469,4.6259 4.73078,2.5442 17.82643,9.5843 29.10143,15.6447 11.275,6.0603 24.55,13.3734 29.5,16.2514 4.95,2.878 11.7818,6.6289 15.1818,8.3353 3.4,1.7065 10.3008,5.6003 15.3351,8.653 5.0343,3.0526 12.1759,7.0724 15.8701,8.9328 3.6942,1.8604 12.3116,6.6389 19.1498,10.6189 6.8382,3.98 13.8104,7.8118 15.4938,8.5152 2.7227,1.1377 14.7022,7.843 21.4694,12.0172 1.375,0.8481 6.6102,3.5153 11.6337,5.9271 5.0236,2.4118 13.3537,6.8214 18.5115,9.7991 5.1578,2.9777 12.7476,7.1031 16.8663,9.1675 4.1187,2.0644 10.4135,5.4443 13.9885,7.5109 3.575,2.0666 11.225,6.1917 17,9.1669 5.775,2.9752 15.225,8.3758 21,12.0014 5.775,3.6255 19.95,11.5499 31.5,17.6096 11.55,6.0598 27.525,14.5058 35.5,18.769 29.3243,15.6758 75.2195,39.476 106.3277,55.1389 7.0552,3.5523 15.0781,7.7856 17.8286,9.4074 2.7505,1.6217 7.7781,4.1168 11.1723,5.5446 3.3943,1.4278 10.8834,5.1312 16.6426,8.2296 5.7591,3.0985 14.0841,7.2201 18.5,9.1593 4.4158,1.9391 12.7538,6.0756 18.5288,9.1922 5.775,3.1166 13.2,6.8721 16.5,8.3457 3.3,1.4735 22.65,10.9092 43,20.9681 38.3848,18.9734 64.2658,31.4683 65.1813,31.4683 0.2915,0 14.545,6.9363 31.6744,15.414 17.1294,8.4777 39.0193,19.2625 48.6443,23.9663 9.625,4.7037 25.15,12.5106 34.5,17.3485 22.7969,11.7957 96.4599,47.2712 98.1562,47.2712 0.5698,0 30.797,14.3226 54.8438,25.9867 7.7,3.7349 17.825,8.3733 22.5,10.3075 4.675,1.9342 13,5.7737 18.5,8.5322 5.5,2.7586 12.475,5.984 15.5,7.1676 3.025,1.1836 13.15,5.8814 22.5,10.4394 9.35,4.5581 18.125,8.6395 19.5,9.0697 1.375,0.4302 9.025,3.9196 17,7.7542 7.975,3.8346 17.425,8.2113 21,9.726 23.5954,9.997 38.936,19.4423 37.5152,23.0985 -0.6072,1.5625 -8.2774,6.6177 -18.9004,12.457 -3.7869,2.0815 -8.8521,5.2859 -11.256,7.1209 -2.404,1.8349 -8.3056,5.8564 -13.1148,8.9367 -15.4524,9.897 -33.2931,21.685 -45.6779,30.181 -6.6363,4.5526 -15.8911,10.7953 -20.5661,13.8727 -4.675,3.0773 -15.475,10.2113 -24,15.8533 -14.3684,9.5092 -26.7582,17.5995 -57.5,37.5462 -6.6,4.2824 -15.15,9.9958 -19,12.6965 -3.85,2.7007 -9.7,6.4223 -13,8.2702 -5.0633,2.8354 -36.1093,23.1233 -51.5,33.6543 -7.2431,4.956 -46.4594,30.4842 -76.5478,49.8294 -31.9265,20.5271 -37.7105,24.2234 -52.4197,33.5 -8.2849,5.225 -22.8189,14.6403 -32.298,20.9229 -9.479,6.2826 -22.3504,14.5342 -28.6032,18.3369 -6.2528,3.8028 -13.4528,8.3814 -16,10.1748 -9.1077,6.4122 -31.9204,18.5657 -34.7909,18.5349 -1.6381,-0.018 -8.5547,-3.2357 -16.3404,-7.6028 z m 1218.0323,-55.3064 c -3.7742,-7.052 -6.878,-56.0538 -9.505,-150.0603 -2.4769,-88.6336 -3.2915,-108.1815 -7.959,-191 -1.3484,-23.925 -2.7153,-49.575 -3.0376,-57 -1.5608,-35.9598 -2.7838,-56.3066 -4.5679,-76 -1.0713,-11.825 -2.3867,-27.8 -2.9232,-35.5 -2.1905,-31.4393 -4.1368,-56.8748 -5.5094,-72 -1.7596,-19.3913 -2.915,-35.7767 -5.5705,-79 -1.115,-18.15 -2.6947,-39.975 -3.5103,-48.5 -0.8156,-8.525 -2.8303,-31.25 -4.4771,-50.5 -1.6468,-19.25 -3.6496,-40.85 -4.4508,-48 -1.6025,-14.3023 -3.469,-34.5293 -6.538,-70.8516 -1.1084,-13.1184 -2.6882,-28.6434 -3.5106,-34.5 -0.8224,-5.8566 -2.1867,-18.0734 -3.0317,-27.1484 -0.845,-9.075 -3.0709,-31.35 -4.9464,-49.5 -1.8756,-18.15 -4.5716,-46.05 -5.9911,-62 -2.2545,-25.3315 -6.4941,-62.7195 -13.494,-119 -2.1849,-17.5672 -2.477,-24.0932 -1.1159,-24.9343 1.2356,-0.7637 7.0697,1.7961 13.568,5.953 6.0164,3.8487 39.1936,20.1495 61.0382,29.9897 22.9521,10.3391 52.448,24.7123 66.1527,32.2358 7.066,3.8791 19.8223,10.5142 28.3473,14.7447 8.525,4.2305 15.95,8.0585 16.5,8.5066 0.55,0.4481 8.875,4.838 18.5,9.7552 21.3772,10.9213 43.6656,22.7977 52.8439,28.1581 3.7648,2.1988 9.0526,4.8712 11.7506,5.9387 2.698,1.0674 10.2027,5.1392 16.677,9.0483 6.4744,3.9092 16.3744,9.4152 22,12.2356 5.6257,2.8204 12.0285,6.3542 14.2285,7.8528 2.2,1.4986 8.05,4.7402 13,7.2034 4.95,2.4632 12.825,6.9509 17.5,9.9726 4.675,3.0218 11.1879,6.7179 14.4731,8.2138 3.2851,1.4958 9.3601,4.8745 13.5,7.5083 4.1398,2.6338 12.9269,7.637 19.5269,11.1181 6.6,3.4811 13.9826,7.675 16.4058,9.3197 2.4232,1.6447 9.8482,5.9994 16.5,9.6772 15.113,8.3559 22.781,12.7695 43.7163,25.1628 9.1422,5.4119 16.8675,9.8399 17.1675,9.8399 0.4845,0 20.2738,11.3771 46.2104,26.567 4.95,2.899 12.15,7.4483 16,10.1096 l 7,4.8386 0.6331,6.4924 c 0.3482,3.5708 0.6827,123.9424 0.7433,267.4924 0.1063,251.8244 -0.3404,299.8153 -2.9448,316.3424 -1.6295,10.3403 -11.0232,27.1056 -20.0866,35.8493 -7.2102,6.9558 -38.2627,26.9054 -72.845,46.7991 -6.875,3.9549 -14.525,8.5408 -17,10.191 -13.1311,8.7549 -17.3995,11.4107 -28.638,17.8182 -29.2855,16.6967 -40.142,23.0633 -44.362,26.0154 -2.475,1.7313 -8.1,5.0923 -12.5,7.469 -7.3531,3.9717 -13.736,7.7149 -43.5,25.5107 -5.775,3.4528 -13.875,7.9604 -18,10.0168 -4.125,2.0564 -11.55,6.3154 -16.5,9.4643 -9.8372,6.2581 -36.0499,21.9111 -49.5,29.5592 -4.675,2.6584 -10.975,6.4728 -14,8.4766 -3.025,2.0037 -9.1,5.5902 -13.5,7.9698 -6.8812,3.7216 -20.944,11.9259 -40,23.3362 -2.75,1.6467 -10.85,6.3663 -18,10.4881 -7.15,4.1218 -15.475,9.1591 -18.5,11.1941 -10.9357,7.3564 -36.6134,21.9725 -39.6788,22.5856 -2.5559,0.5111 -3.3501,0.2287 -4.2889,-1.5255 z M 770,2603.851 c -5.775,-3.3393 -11.69282,-7.0343 -13.15071,-8.2112 -11.76516,-9.4976 -19.471,-16.6632 -23.68232,-22.022 -2.72344,-3.4655 -7.53324,-9.1847 -10.68845,-12.7094 -19.52405,-21.81 -48.37783,-65.7312 -97.49611,-148.4084 -19.92538,-33.5389 -50.23163,-91.9421 -68.23723,-131.5 -9.25916,-20.3422 -22.59708,-52.9977 -32.47117,-79.5 -4.09832,-11 -8.8027,-23.6 -10.45417,-28 -1.65147,-4.4 -4.99324,-14.3 -7.42616,-22 -2.43292,-7.7 -5.51299,-16.925 -6.84461,-20.5 -14.56068,-39.0913 -28.93317,-95.225 -43.91093,-171.5 -9.71249,-49.4613 -13.5962,-86.687 -17.10993,-164 -2.30608,-50.7411 -1.28433,-91.4768 4.02573,-160.5 4.93345,-64.1276 8.45339,-88.7688 23.56987,-165 4.26873,-21.5269 21.01884,-88.4839 26.51716,-106 2.50337,-7.975 7.0038,-22.375 10.00096,-32 24.35674,-78.2185 53.81347,-150.2791 94.83634,-232 C 619.28463,1056.56 666.71259,979.37761 703.2668,927.84403 741.53113,873.89956 789.79291,812.38575 821.22195,777.5 866.32348,727.43799 935.64011,660.75472 986.5,618.50091 c 3.3,-2.74161 10.5,-8.83793 16,-13.54738 27.0823,-23.18961 74.8945,-60.07429 115.5,-89.10239 28.8847,-20.64913 37.8414,-26.45215 87,-56.36709 7.975,-4.8531 16.975,-10.48026 20,-12.5048 30.2312,-20.23281 114.2376,-63.91576 173,-89.95927 9.625,-4.2658 21.1,-9.36867 25.5,-11.33971 28.1608,-12.61501 107.5295,-42.12078 147.5,-54.83395 40.0363,-12.7341 48.5094,-15.29699 64.2046,-19.4201 9.5125,-2.49891 23.423,-6.30992 30.9123,-8.4689 17.981,-5.18348 32.9219,-8.89424 58.3831,-14.50016 35.0855,-7.72498 42.3094,-9.14775 60.5,-11.91574 29.2036,-4.4438 47.9889,-7.5331 58.5,-9.62051 5.5,-1.09225 14.1991,-2.61851 19.3313,-3.39169 5.1323,-0.77318 10.3073,-2.06355 11.5,-2.86749 1.3893,-0.93638 3.9489,-6.07999 7.122,-14.31172 8.1896,-21.24586 22.2012,-48.21171 32.2314,-62.03057 17.4564,-24.05004 27.5626,-34.35963 50.5578,-51.57526 13.7202,-10.271846 39.6589,-25.38962 50.5433,-29.458016 14.3107,-5.349125 40.7932,-13.376904 48.6459,-14.746293 23.3757,-4.076386 75.9899,-4.685549 96.0683,-1.112272 30.5455,5.436058 68.8907,22.683421 96.5,43.404931 10.5604,7.925876 27.9205,23.24364 31.7991,28.05817 1.5992,1.98511 6.637,7.6593 11.1951,12.6093 15.7549,17.10933 28.9433,40.0647 36.9566,64.32544 8.206,24.84398 9.9315,27.58086 20.273,32.15539 3.7521,1.65973 22.7039,5.55062 51.7762,10.62991 4.675,0.81677 22,4.36399 38.5,7.8827 16.5,3.51871 34.5,7.30891 40,8.42267 13.8405,2.80273 83.0012,20.24511 97.2807,24.53427 6.4456,1.93608 17.3443,5.11763 24.2193,7.0701 16.7856,4.76705 75.0263,23.75299 87.5,28.52419 5.5,2.10377 17.65,6.56064 27,9.90417 9.35,3.34352 20.15,7.40804 24,9.03226 3.85,1.62422 13.975,5.63191 22.5,8.90597 21.8004,8.37252 47.9959,19.57477 65,27.79661 7.975,3.85608 19.8349,9.40529 26.3554,12.33158 31.2102,14.00674 95.7906,47.82033 123.1446,64.47712 8.25,5.02372 22.425,13.56505 31.5,18.98074 9.075,5.41568 23.475,14.33181 32,19.81361 8.525,5.4818 19.093,12.27234 23.4845,15.09009 35.8085,22.97612 120.1731,84.54258 163.0155,118.96321 14.9603,12.01946 47.0378,39.21162 55.0119,46.63357 3.8565,3.58952 15.7815,14.36526 26.5,23.94608 47.2319,42.2188 124.8652,119.64455 149.4189,149.01942 6.638,7.9415 14.8943,17.8415 18.3472,22 3.4529,4.15849 8.9489,10.7109 12.2132,14.5609 3.2644,3.85 9.4393,11.4159 13.722,16.81311 4.2828,5.39721 10.3766,13.04721 13.542,17 8.3198,10.38959 31.7279,41.06 35.2448,46.17952 1.65,2.40187 4.9353,6.98611 7.3006,10.1872 13.5982,18.40316 16.5883,22.68769 39.6994,56.88597 15.6686,23.1854 16.9946,25.1935 23.8772,36.1618 11.3056,18.0168 14.5187,23.0716 22.0039,34.6167 4.3346,6.6856 8.67,13.3045 9.6343,14.7087 4.0853,5.949 19.8816,34.6127 26.9743,48.947 8.5006,17.1799 10.5172,21.8264 9.7886,22.555 -0.5476,0.5477 -10.9758,-10.8807 -23.7746,-26.055 -4.639,-5.5 -10.8958,-12.7 -13.904,-16 -3.0083,-3.3 -9.6402,-11.175 -14.7378,-17.5 -14.428,-17.9022 -29.4621,-35.3918 -49.5785,-57.676 -4.5559,-5.0468 -14.0889,-15.6218 -21.1845,-23.5 -39.5513,-43.91377 -93.6873,-98.76854 -136.6404,-138.45464 -32.5799,-30.1019 -42.6158,-39.08868 -67.5521,-60.4901 C 3339.5165,815.2264 3275.2244,766.02493 3238,740.3165 c -6.875,-4.74811 -13.625,-9.61877 -15,-10.82369 -1.375,-1.20493 -6.9486,-4.814 -12.3859,-8.02017 -5.4372,-3.20617 -11.9622,-7.45005 -14.5,-9.43084 -2.5377,-1.9808 -8.2141,-5.81273 -12.6141,-8.5154 -4.4,-2.70267 -10.25,-6.57609 -13,-8.6076 -2.75,-2.03151 -6.8535,-4.62336 -9.1189,-5.75967 -2.2654,-1.13631 -11.2654,-6.88911 -20,-12.784 -13.8006,-9.31385 -22.7696,-15.00519 -45.8811,-29.11405 -10.546,-6.43801 -39.582,-23.32358 -52.5,-30.5308 C 3020.0118,603.90464 2990.8881,588 2990.3908,588 c -0.2606,0 -17.703,-8.55 -38.7608,-19 -21.0579,-10.45 -38.5955,-19 -38.9724,-19 -0.377,0 -7.7666,-3.3353 -16.4215,-7.41178 -33.98,-16.00472 -80.2325,-35.33586 -128.7361,-53.80502 -18.2514,-6.94975 -73.6945,-24.99101 -94.5,-30.75047 -10.175,-2.81667 -21.875,-6.20028 -26,-7.51913 -31.7376,-10.14719 -44.7364,-13.4074 -90,-22.5728 -10.725,-2.1717 -24.743,-5.0677 -31.1512,-6.43555 -11.7701,-2.51241 -19.8269,-3.79179 -63.3488,-10.05945 -13.2,-1.90095 -26.475,-3.89652 -29.5,-4.4346 -14.4652,-2.57301 -68.354,-9.25758 -85.0958,-10.55561 -6.7737,-0.52518 -9.2267,-0.34017 -11.5724,0.87281 -3.0137,1.55847 -7.279,7.3349 -23.1357,31.33228 -20.2375,30.62744 -43.1036,53.24445 -72.9993,72.20423 -28.4439,18.03901 -60.1508,30.13371 -90.6429,34.57596 -28.2934,4.12195 -46.3281,4.2243 -77.0539,0.4373 -27.4941,-3.38868 -36.745,-6.07474 -62.5,-18.14731 -21.4105,-10.03608 -43.3732,-23.44546 -56.5,-34.49612 -12.4568,-10.48664 -27.897,-26.84862 -34.6654,-36.73474 -3.3889,-4.95 -8.6755,-11.76754 -11.7481,-15.15009 -3.0726,-3.38254 -6.6332,-7.54504 -7.9126,-9.25 -2.8406,-3.78566 -4.5754,-3.87696 -21.5244,-1.13283 -6.6822,1.08189 -18.8995,2.90162 -27.1495,4.04385 -35.9512,4.97749 -76.8653,12.42659 -99,18.0246 -40.1837,10.16273 -70.7174,18.02513 -80,20.59998 -24.1212,6.69081 -86.261,27.03929 -106,34.71105 -22.5429,8.76152 -55.9111,22.29754 -59.3485,24.07508 -1.745,0.90241 -10.9305,4.9463 -20.4122,8.98642 -57.2002,24.37301 -133.9045,64.2539 -189.2393,98.39127 -14.8596,9.16724 -53.339,35.04537 -63.5,42.70495 -5.225,3.93872 -17.825,13.15277 -28,20.47567 -10.175,7.32289 -21.65,15.65076 -25.5,18.50637 -3.85,2.85561 -12.175,9.03147 -18.5,13.72413 -6.325,4.69266 -15.7415,12.07753 -20.9256,16.41083 -5.1841,4.3333 -13.5255,11.25372 -18.5364,15.37872 -14.5024,11.93845 -28.7082,24.20072 -32.5205,28.07122 -1.9346,1.96417 -6.6675,6.20277 -10.5175,9.41912 -3.85,3.21634 -8.8042,7.68429 -11.0092,9.92878 -2.2051,2.24448 -11.3703,10.83088 -20.3671,19.08088 -22.468,20.60295 -53.05174,52.00943 -75.03175,77.05022 C 961.97797,912.0726 950.6824,924.65 946.99067,928.5 c -3.69173,3.85 -14.28691,16.225 -23.54485,27.5 -9.25794,11.275 -19.37549,23.425 -22.48345,27 -5.52155,6.35128 -30.36273,39.0676 -41.00163,54 -19.00928,26.6807 -42.31152,62.346 -57.16893,87.5 -3.57348,6.05 -9.78947,16.4 -13.81331,23 -7.79295,12.7822 -25.45701,43.8374 -35.26536,62 -5.71717,10.5868 -33.46604,66.5212 -40.20835,81.0495 -11.06523,23.8432 -31.40043,77.2245 -41.69438,109.4505 -1.66903,5.225 -5.93083,17.556 -9.47068,27.4022 -3.53984,9.8463 -8.4009,25.5963 -10.80234,35 -2.40144,9.4038 -6.17026,23.6228 -8.37515,31.5978 -4.33743,15.6883 -5.1828,19.3767 -14.09586,61.5 -7.42422,35.0871 -12.62316,65.3682 -18.1132,105.5 -1.09099,7.975 -2.91217,19.9 -4.04709,26.5 -2.93827,17.0873 -3.71598,23.8477 -4.88917,42.5 -0.5708,9.075 -1.7387,27.3 -2.59533,40.5 -3.75791,57.9063 -0.79852,170.3953 5.5905,212.5 1.04322,6.875 2.35158,16.1 2.90745,20.5 1.2768,10.1064 7.32558,50.8796 10.08794,68 2.65863,16.4776 8.13514,44.9339 12.99059,67.5 1.12424,5.225 2.90195,13.55 3.95048,18.5 4.08517,19.2859 20.14962,78.2316 28.07052,103 2.28656,7.15 5.91501,18.625 8.06321,25.5 12.28833,39.3269 36.64484,105.3006 51.27835,138.8961 3.49864,8.0321 8.48416,19.7789 11.07892,26.1039 2.59477,6.325 7.79902,18.25 11.56501,26.5 3.76598,8.25 7.74441,17.25 8.84096,20 1.09654,2.75 7.68581,16.6592 14.64281,30.9092 13.01907,26.6671 23.46077,50.6329 25.68728,58.9576 1.17798,4.4043 1.09618,5.0569 -1.1692,9.3272 -5.22717,9.8533 -7.89155,13.3072 -10.23439,13.2671 -1.24961,-0.021 -6.99702,-2.7709 -12.77202,-6.1101 z M 2123.6019,391.99069 c 11.1188,-1.39419 18.3458,-3.41451 29.1265,-8.14239 14.3372,-6.28758 21.78,-11.56683 30.4445,-21.59463 14.3581,-16.61713 22.1041,-30.59718 26.1822,-47.25367 4.5462,-18.56861 4.451,-30.13848 -0.4187,-50.90035 -3.7097,-15.81622 -18.5629,-41.77083 -30.9585,-54.09722 -4.6067,-4.58102 -20.7516,-14.73961 -28.2191,-17.75586 -8.5277,-3.44449 -17.633,-5.15915 -31.2588,-5.88648 -20.3389,-1.08566 -39.0839,2.76828 -53,10.89671 -3.85,2.24879 -9.7,5.66684 -13,7.59566 -7.1425,4.1747 -17.9544,15.05371 -24.0025,24.15135 -6.852,10.30677 -15.3028,28.61603 -16.9908,36.81157 -0.947,4.59777 -1.5018,12.77058 -1.4936,22 0.019,20.65719 2.057,29.89668 10.1516,46.01249 7.4282,14.78907 11.0646,19.60569 24.3124,32.20284 8.2933,7.88607 11.6622,10.32581 19.5229,14.13842 11.5137,5.58441 23.7691,9.61395 34.5,11.34356 10.1687,1.63898 15.0947,1.73279 25.1019,0.478 z M 1509.1575,2289.0431 c -7.8388,-3.8733 -16.7168,-8.6188 -19.7289,-10.5456 -3.0121,-1.9268 -9.8532,-5.7032 -15.2026,-8.392 -5.3493,-2.6887 -17.151,-9.0738 -26.226,-14.1891 -9.075,-5.1153 -31.575,-17.0162 -50,-26.4464 -27.4607,-14.0548 -82.3285,-42.4715 -153,-79.2405 -5.775,-3.0046 -12.975,-6.9367 -16,-8.738 -3.025,-1.8012 -10.0262,-5.5345 -15.5583,-8.2962 -5.5321,-2.7616 -12.5071,-6.4925 -15.5,-8.2909 -2.9929,-1.7984 -12.4167,-6.9507 -20.9417,-11.4497 -8.525,-4.4989 -22.8955,-12.0805 -31.9345,-16.8479 -9.039,-4.7675 -16.9863,-9.1261 -17.6607,-9.6858 -0.6745,-0.5598 -7.4539,-4.2907 -15.0655,-8.291 -18.26,-9.5965 -45.1682,-24.4503 -48.4603,-26.7509 -1.4415,-1.0073 -8.4165,-4.938 -15.5,-8.7347 -18.5683,-9.9526 -67.69874,-41.2582 -69.06562,-44.008 -0.89522,-1.801 -1.11095,-353.3295 -0.3054,-497.6364 l 0.50799,-91 3.13595,-9.249 c 4.09649,-12.082 13.04426,-27.8306 18.66048,-32.8436 12.3681,-11.0398 44.9201,-32.691 73.6876,-49.0116 4.125,-2.3403 12.45,-7.2415 18.5,-10.8916 6.05,-3.6501 15.275,-9.0181 20.5,-11.9288 27.6819,-15.4207 40.0467,-22.5107 44.0531,-25.2601 2.4458,-1.6784 7.8219,-4.7405 11.9469,-6.8046 6.6428,-3.3241 19.9406,-10.9804 44,-25.3334 4.125,-2.4608 10.65,-6.2817 14.5,-8.4909 3.85,-2.2091 11.5,-6.7194 17,-10.0228 5.5,-3.3034 14.5,-8.5703 20,-11.7043 14.3061,-8.1519 41.9583,-24.478 49,-28.93 3.3,-2.0864 15,-9.0852 26,-15.553 11,-6.4677 25.4,-15.0024 32,-18.966 6.6,-3.9636 15.825,-9.3622 20.5,-11.9969 4.675,-2.6347 13.9,-8.2608 20.5,-12.5024 13.7327,-8.8255 42.7156,-25.011 44.7865,-25.011 1.1489,0 1.5033,6.5082 2.0512,37.6637 0.3643,20.715 0.6754,55.2525 0.6915,76.75 0.028,36.8338 0.3772,56.6586 2.9214,165.5863 3.2638,139.7445 3.8322,156.427 7.0525,207 1.0682,16.775 2.8574,48.275 3.976,70 2.2497,43.6899 3.378,60.4101 5.5335,82 0.7962,7.975 2.582,33.4 3.9684,56.5 1.3864,23.1 3.4129,52.8 4.5035,66 1.0905,13.2 3.1289,38.175 4.5298,55.5 1.4008,17.325 3.4076,39.825 4.4594,50 1.0518,10.175 2.389,24.8 2.9715,32.5 0.5825,7.7 1.7427,23 2.5782,34 0.8354,11 2.1785,25.85 2.9845,33 0.806,7.15 2.5965,25.15 3.979,40 1.3824,14.85 3.8552,38.7 5.495,53 1.6398,14.3 4.5795,43.325 6.5326,64.5 1.9531,21.175 4.2048,45.475 5.0038,54 1.563,16.678 1.1099,21.3131 -2.1307,21.7927 -1.0877,0.161 -8.3913,-2.8763 -16.2301,-6.7496 z M 3226,1933.4068 c -1.925,-1.3723 -9.575,-5.6891 -17,-9.5928 -7.425,-3.9038 -14.9005,-8.1346 -16.6123,-9.4018 -1.7118,-1.2672 -8.6868,-5.4062 -15.5,-9.1979 -6.8132,-3.7916 -17.1127,-9.521 -22.8877,-12.7318 -5.775,-3.2109 -15.675,-8.8543 -22,-12.5409 -6.325,-3.6867 -16,-9.1527 -21.5,-12.1469 -5.5,-2.9941 -19.225,-10.6237 -30.5,-16.9547 -11.275,-6.3311 -26.35,-14.5652 -33.5,-18.2981 -7.15,-3.7329 -13.463,-7.1545 -14.029,-7.6036 -0.5659,-0.449 -7.9909,-4.5883 -16.5,-9.1985 -8.509,-4.6102 -20.871,-11.4431 -27.471,-15.1843 -6.6,-3.7411 -18.075,-10.0591 -25.5,-14.04 -31.5968,-16.9405 -40.8056,-21.9535 -46,-25.041 -8.0836,-4.805 -32.1706,-17.642 -50.8224,-27.0856 -8.9773,-4.5453 -16.8601,-8.7105 -17.5174,-9.2559 -0.6572,-0.5455 -9.9621,-5.4576 -20.6776,-10.916 -10.7154,-5.4583 -28.9326,-14.7795 -40.4826,-20.7138 -11.55,-5.9342 -34.1366,-17.426 -50.1924,-25.5372 -16.0558,-8.1113 -30.4558,-15.6276 -32,-16.703 -1.5442,-1.0754 -9.3326,-5.1681 -17.3076,-9.0951 -7.975,-3.9269 -22.375,-11.2454 -32,-16.2634 -24.7764,-12.917 -53.6655,-27.7532 -107.0389,-54.9706 -9.0965,-4.6386 -23.7215,-11.8961 -32.5,-16.1278 -8.7786,-4.2316 -24.0611,-11.5964 -33.9611,-16.3661 -9.9,-4.7697 -27.45,-13.2899 -39,-18.9338 -19.6927,-9.6228 -32.5548,-15.774 -82,-39.2165 -11,-5.2152 -27.875,-13.22 -37.5,-17.7883 -9.625,-4.5684 -20.2,-9.3229 -23.5,-10.5655 -3.3,-1.2426 -10.05,-4.3979 -15,-7.0117 -4.95,-2.6139 -14.175,-6.8626 -20.5,-9.4416 -6.325,-2.5791 -13.8193,-5.9538 -16.654,-7.4994 -2.8348,-1.5457 -11.645,-5.7509 -19.5783,-9.345 -7.9334,-3.5942 -17.9891,-8.287 -22.346,-10.4285 -4.3569,-2.1415 -11.7467,-5.4099 -16.4217,-7.2631 -4.675,-1.8532 -13.9,-6.1376 -20.5,-9.5209 -6.6,-3.3833 -17.1089,-8.3221 -23.353,-10.9752 -6.2442,-2.6532 -11.5886,-5.4378 -11.8765,-6.1881 -0.7239,-1.8864 2.4836,-5.0511 12.0515,-11.8906 4.4979,-3.2152 12.5458,-9.3051 17.8843,-13.5331 5.3384,-4.2279 15.1248,-11.4337 21.7476,-16.0129 12.2913,-8.4986 24.007,-16.64 49.2932,-34.2543 17.3644,-12.096 63.5291,-42.7089 125.2529,-83.0583 10.45,-6.8313 21.475,-14.1272 24.5,-16.2133 6.4734,-4.4641 46.5785,-30.3024 83.506,-53.7999 8.6435,-5.5 23.8781,-15.4267 33.8547,-22.0594 9.9766,-6.6327 21.2893,-13.788 25.1393,-15.9007 3.85,-2.1127 10.375,-6.1742 14.5,-9.0255 4.125,-2.8513 10.2,-6.6851 13.5,-8.5197 3.3,-1.8345 7.6148,-4.589 9.5883,-6.1211 1.9736,-1.5321 8.9381,-6.0118 15.4767,-9.955 6.5386,-3.9432 14.3739,-8.8601 17.4117,-10.9264 3.0378,-2.0663 9.1913,-5.8516 13.6745,-8.4117 4.4832,-2.5601 10.1082,-6.1005 12.5,-7.8676 10.3705,-7.6617 16.2511,-10.7118 20.6536,-10.7123 5.247,-7e-4 16.5989,4.6573 23.2515,9.5407 2.6362,1.9352 11.2395,7.2588 19.1184,11.8302 7.8789,4.5715 16.5753,9.6736 19.3253,11.338 2.75,1.6643 9.95,5.8652 16,9.3351 6.05,3.47 11.675,6.8655 12.5,7.5456 0.825,0.6801 7.575,4.4843 15,8.4537 7.425,3.9694 14.1961,7.8205 15.0469,8.5578 0.8508,0.7374 5.8008,3.65 11,6.4724 5.1992,2.8225 15.7531,9.2992 23.4531,14.3927 7.7,5.0934 15.575,10.0555 17.5,11.0269 1.925,0.9713 9.125,5.1677 16,9.3254 6.875,4.1577 18.575,11.0072 26,15.2212 14.5249,8.2435 18.2477,10.4122 37.7825,22.0101 6.9946,4.1528 16.7675,9.7316 21.7175,12.3974 4.95,2.6658 11.025,6.2817 13.5,8.0354 2.475,1.7537 9.225,5.6689 15,8.7006 5.775,3.0316 13.65,7.5438 17.5,10.027 3.85,2.4832 10.4077,6.1447 14.5728,8.1366 4.165,1.9919 11.526,6.1036 16.3578,9.1371 4.8319,3.0335 9.0066,5.5155 9.2772,5.5155 0.7902,0 20.4115,11.123 24.7922,14.0543 2.2,1.4722 6.2764,3.8262 9.0587,5.2311 2.7823,1.4049 7.7883,4.3675 11.1244,6.5834 3.3361,2.2159 10.7347,6.59 16.4413,9.7201 5.7066,3.1302 12.6256,7.0465 15.3756,8.7029 2.75,1.6564 12.3614,7.2328 21.3587,12.3919 8.9973,5.1592 17.7965,10.477 19.5538,11.8174 1.7573,1.3403 4.9709,3.1703 7.1413,4.0665 4.1499,1.7135 17.8174,9.7548 25.4462,14.9713 2.475,1.6923 7.425,4.5113 11,6.2643 6.2801,3.0794 23.4281,14.5094 28.18,18.7835 1.276,1.1476 6.0153,4.654 10.5318,7.7919 9.8261,6.8269 12.5403,9.9612 18.5372,21.4071 7.752,14.7956 8.7073,19.351 9.7967,46.7143 0.5261,13.2158 0.8888,100.1637 0.8072,193.5 -0.082,93.225 -0.021,200.3423 0.1339,238.0384 0.1553,37.6961 -0.034,69.5336 -0.4196,70.75 -0.9042,2.8489 -3.1979,2.7332 -7.5672,-0.3816 z M 1568.6268,1660.25 c -1.1665,-4.0188 -3.7723,-45.2403 -6.6217,-104.75 -0.5794,-12.1 -1.7071,-31.45 -2.506,-43 -2.0548,-29.7055 -3.3207,-70.9823 -4.4929,-146.5 -0.5592,-36.025 -1.692,-90.25 -2.5174,-120.5 -0.8254,-30.25 -1.9466,-71.425 -2.4916,-91.5 -1.0851,-39.9722 -1.1525,-89.3708 -0.1413,-103.5 l 0.6441,-9 7.5,-4.1478 c 9.3438,-5.1676 21.9611,-12.4478 47,-27.1192 48.4459,-28.38666 79.7936,-46.68881 95.5,-55.75695 21.5822,-12.4606 43.8606,-25.48669 53.5,-31.28124 4.125,-2.47968 12.675,-7.50712 19,-11.17209 6.325,-3.66498 15.7057,-9.3319 20.8459,-12.59316 15.6171,-9.90828 18.2943,-11.50257 28.1541,-16.76579 5.225,-2.78914 11.525,-6.50362 14,-8.2544 2.475,-1.75077 8.7236,-5.29429 13.8857,-7.87448 5.1621,-2.58018 12.8121,-6.82512 17,-9.43318 4.1879,-2.60807 11.2143,-6.68678 15.6143,-9.06381 4.4,-2.37703 12.725,-7.12193 18.5,-10.54422 5.775,-3.4223 14.775,-8.6929 20,-11.71246 12.7601,-7.37414 25.2129,-14.80749 32.5,-19.4 3.3,-2.07974 12.3,-7.42241 20,-11.87261 7.7,-4.4502 16.7,-9.81051 20,-11.9118 3.3,-2.10129 11.0149,-6.80769 17.1443,-10.45867 22.459,-13.37786 26.0083,-15.52354 33.8557,-20.467 17.618,-11.09846 27.0248,-15.07643 44.5,-18.8182 22.1978,-4.75297 51.6395,2.30047 71.2212,17.06267 3.4533,2.60342 8.9788,6.0988 12.2788,7.7675 3.3,1.66871 9.8318,5.53209 14.515,8.58529 4.6833,3.05321 12.3333,7.77298 17,10.48838 4.6668,2.71541 12.085,7.19724 16.485,9.95961 11.1985,7.03054 40.3072,24.28361 40.9704,24.28361 0.3023,0 7.1858,3.98702 15.2967,8.86004 8.1108,4.87303 17.2188,10.08961 20.24,11.59241 5.734,2.85227 12.4705,6.70791 42.638,24.40384 9.9798,5.85404 24.6048,14.39623 32.5,18.98265 28.1424,16.34828 32.4895,18.9376 43.3549,25.82422 6.05,3.83455 14.15,8.71002 18,10.83439 3.85,2.12436 12.85,7.3054 20,11.51342 10.8947,6.41189 30.4532,17.512 51.5,29.22795 2.475,1.37774 8.1,4.59572 12.5,7.15107 4.4,2.55535 10.3509,5.52731 13.2242,6.60435 7.3026,2.73736 27.0907,14.79359 28.9577,17.64294 1.3957,2.13007 1.3962,2.59461 0.01,4.71772 -1.9813,3.02377 -9.1724,7.73722 -24.187,15.8534 -11.5224,6.2285 -19.2599,10.7146 -35.5,20.5828 -4.125,2.5065 -13.35,8.1021 -20.5,12.4348 -7.15,4.3327 -15.475,9.5791 -18.5,11.6588 -3.025,2.0796 -8.2,5.2869 -11.5,7.1273 -3.3,1.8404 -9.15,5.4436 -13,8.0072 -3.85,2.5635 -11.5,7.2818 -17,10.4849 -5.5,3.2031 -11.575,7.0233 -13.5,8.4892 -1.925,1.466 -7.55,5.0744 -12.5,8.0188 -4.95,2.9444 -13.5,8.3333 -19,11.9754 -5.5,3.642 -12.25,7.9177 -15,9.5015 -2.75,1.5838 -11.6013,7.4092 -19.6695,12.9453 -8.0682,5.5361 -21.4807,14.3406 -29.8055,19.5656 -17.2081,10.8006 -35.8325,22.928 -64.025,41.6903 -10.725,7.1376 -24.675,16.4115 -31,20.6087 -6.325,4.1972 -13.3,8.9172 -15.5,10.4888 -2.2,1.5716 -13.675,9.2986 -25.5,17.171 -11.825,7.8725 -22.85,15.259 -24.5,16.4145 -4.0057,2.8053 -18.2884,12.4845 -39,26.4296 -9.35,6.2954 -18.575,12.663 -20.5,14.1503 -1.925,1.4872 -7.7281,5.1025 -12.8959,8.034 -5.1677,2.9315 -10.7927,6.5402 -12.5,8.0193 -1.7072,1.4791 -7.6041,5.6527 -13.1041,9.2746 -18.0672,11.8977 -41.1926,28.096 -50.1111,35.1006 -4.8192,3.785 -13.2906,9.983 -18.8255,13.7735 -9.9903,6.8416 -11.7946,8.1338 -29.0094,20.7754 -9.0712,6.6614 -26.6804,18.9904 -43.054,30.1442 -4.95,3.3719 -10.8,7.5788 -13,9.3486 -2.2,1.7698 -9.4,6.9223 -16,11.4499 -6.6,4.5276 -15.375,10.6661 -19.5,13.6411 -4.125,2.9749 -13.4611,9.5887 -20.7469,14.6973 -7.2858,5.1086 -17.238,12.2133 -22.1161,15.7883 -21.6116,15.8385 -27.2346,19.9006 -36.671,26.4916 -5.5186,3.8546 -13.1686,9.3884 -17,12.2972 -3.8313,2.9089 -9.666,7.0673 -12.966,9.2409 -9.4031,6.1936 -42.9914,30.2336 -54.7784,39.2064 -32.3546,24.6297 -55.0095,41.3225 -72.7216,53.5833 -6.325,4.3783 -20.9138,14.9851 -32.4196,23.5706 -11.5058,8.5855 -21.488,15.61 -22.1826,15.61 -0.6947,0 -1.4916,-0.7875 -1.771,-1.75 z"
         id="path3" />
      <path
         style="fill:#e8590c"
         d="m 2094.0633,3298.2698 c -5.9607,-1.12 -19.9725,-6.7998 -26.4652,-10.728 -3.9039,-2.3619 -10.9231,-6.2039 -15.5981,-8.5377 -4.675,-2.3338 -10.525,-5.6916 -13,-7.4618 -2.475,-1.7703 -8.55,-5.599 -13.5,-8.5082 -4.95,-2.9093 -13.05,-7.8674 -18,-11.0181 -9.9114,-6.3086 -29.0456,-17.5663 -43,-25.2991 -4.95,-2.743 -12.825,-7.3291 -17.5,-10.1914 -8.812,-5.3951 -25.7399,-14.7278 -49,-27.0148 -7.425,-3.9222 -18.45,-10.2048 -24.5,-13.9613 -15.0455,-9.342 -22.0753,-13.3494 -28.2216,-16.0878 -2.8718,-1.2795 -7.1468,-3.6388 -9.5,-5.2428 -2.3531,-1.6041 -9.4534,-5.7571 -15.7784,-9.229 -6.325,-3.4719 -14.65,-8.2045 -18.5,-10.5169 -3.85,-2.3123 -11.725,-6.7986 -17.5,-9.9694 -5.775,-3.1709 -12.8559,-7.2715 -15.7354,-9.1126 -2.8794,-1.841 -8.0544,-4.758 -11.5,-6.4822 -5.6274,-2.816 -22.9503,-12.9687 -46.7646,-27.4081 -7.6902,-4.6628 -14.5226,-8.603 -39.5,-22.7793 -25.8679,-14.6817 -26.4386,-15.273 -19.75,-20.4631 4.4839,-3.4792 21.8901,-14.649 35.75,-22.9411 5.5,-3.2906 16.525,-10.0393 24.5,-14.9971 7.975,-4.9579 18.1,-11.1891 22.5,-13.8472 4.4,-2.658 12.3961,-7.5643 17.7692,-10.9028 5.373,-3.3385 14.373,-8.801 20,-12.1389 5.6269,-3.3379 15.4058,-9.6585 21.7308,-14.0459 6.325,-4.3873 15.55,-10.3825 20.5,-13.3226 4.95,-2.9401 11.025,-6.7931 13.5,-8.5623 2.475,-1.7692 9,-5.8412 14.5,-9.0489 12.7599,-7.4419 62.6506,-38.6542 79.2037,-49.551 4.512,-2.9702 15.1914,-9.9004 23.7319,-15.4004 8.5405,-5.5 25.7739,-16.7178 38.2963,-24.9284 48.3862,-31.7255 58.4526,-38.3335 79.2681,-52.0346 11.825,-7.7834 26.2867,-17.2759 32.1371,-21.0943 22.8312,-14.9015 37.697,-25.0119 45.3603,-30.85 7.2087,-5.4919 14.3557,-10.4132 45.4531,-31.2986 5.1979,-3.4909 10.2982,-7.1227 11.3341,-8.0706 1.036,-0.9479 7.4599,-5.5485 14.2754,-10.2235 6.8155,-4.675 19.2651,-13.4195 27.6659,-19.4321 19.3966,-13.8828 36.9664,-25.9935 67.7741,-46.7163 48.8226,-32.8406 75.7442,-51.1791 88,-59.9441 6.875,-4.9168 16.55,-11.6954 21.5,-15.0635 4.95,-3.3681 13.725,-9.5738 19.5,-13.7905 5.775,-4.2167 14.1685,-10.3412 18.6523,-13.6101 4.4838,-3.2689 12.3588,-9.1232 17.5,-13.0096 12.1429,-9.1792 29.5461,-21.6971 54.2192,-38.999 33.6168,-23.5736 56.1764,-40.3883 83.1285,-61.9595 19.33,-15.4709 27.6926,-20.3998 29.5398,-17.4109 1.0079,1.6309 1.7011,8.7416 3.4546,35.4356 0.831,12.65 2.1743,31.55 2.9852,42 1.6025,20.6523 3.8089,58.003 5.5233,93.5 1.2969,26.8543 3.4638,66.3428 5.4875,100 0.8102,13.475 2.3881,43.625 3.5064,67 1.1184,23.375 2.7099,56 3.5367,72.5 3.1163,62.185 5.1845,188.0477 3.1961,194.5 -0.9895,3.2109 -14.5912,13.4177 -26.8577,20.1542 -5.1545,2.8307 -11.1719,6.356 -13.3719,7.8339 -2.2,1.478 -8.725,5.3101 -14.5,8.5158 -5.775,3.2057 -12.975,7.4671 -16,9.4697 -3.025,2.0027 -11.125,6.7094 -18,10.4594 -6.875,3.75 -13.175,7.3841 -14,8.0758 -1.5229,1.2768 -14.5825,8.7339 -39,22.2691 -7.425,4.1158 -17.325,9.831 -22,12.7003 -4.675,2.8693 -12.775,7.6153 -18,10.5468 -5.225,2.9314 -11.975,6.9815 -15,9.0001 -3.025,2.0187 -10,6.0804 -15.5,9.026 -5.5,2.9456 -12.8004,7.1767 -16.2232,9.4023 -3.4227,2.2256 -9.7227,6.0144 -14,8.4195 -4.2772,2.4051 -10.0268,5.8532 -12.7768,7.6625 -2.75,1.8092 -10.625,6.5459 -17.5,10.526 -44.7538,25.909 -52.7884,30.69 -60.9525,36.2701 -2.4489,1.6738 -10.9989,6.5082 -19,10.7433 -22.7352,12.0338 -38.0571,20.4654 -44.0475,24.2393 -3.025,1.9057 -10.675,6.2736 -17,9.7066 -6.325,3.4329 -14.2,7.9219 -17.5,9.9756 -3.3,2.0537 -10.275,6.135 -15.5,9.0695 -5.225,2.9345 -12.425,7.2127 -16,9.5071 -3.575,2.2944 -9.3909,5.6251 -12.9243,7.4017 -3.5334,1.7766 -9.8334,5.3588 -14,7.9605 -11.8872,7.4224 -38.7607,21.4366 -47.6731,24.8609 -11.6577,4.4791 -25.0351,6.222 -34.3393,4.4738 z m -541.7017,-309.1817 c -6.8485,-3.2452 -24.0733,-13.1056 -29.9168,-17.1261 -2.2309,-1.5349 -9.1667,-5.5798 -15.4128,-8.9887 -6.2462,-3.4089 -17.6961,-10.1139 -25.4443,-14.9 -7.7482,-4.7861 -18.5877,-11.1077 -24.0877,-14.0479 -5.5,-2.9403 -11.125,-6.1095 -12.5,-7.0427 -2.6652,-1.8089 -6.6062,-4.0375 -22.5,-12.7238 -5.5,-3.0059 -10.45,-5.8219 -11,-6.2579 -0.55,-0.436 -7.3,-4.0411 -15,-8.0114 -7.7,-3.9703 -15.2093,-8.0778 -16.6874,-9.1277 -2.4537,-1.7429 -8.3293,-5.1367 -41.3126,-23.8624 -6.05,-3.4348 -14.15,-8.0609 -18,-10.2802 -3.85,-2.2194 -12.4,-7.0504 -19,-10.7357 -6.6,-3.6852 -17.4,-9.9683 -24,-13.9623 -20.3736,-12.3292 -28.6221,-17.2088 -39,-23.0714 -9.2168,-5.2066 -20.7553,-12.2871 -44,-27.0002 -4.95,-3.1331 -11.925,-7.1587 -15.5,-8.9456 -5.9117,-2.9549 -17.6963,-9.7208 -38,-21.8171 -4.125,-2.4575 -12.9,-7.5919 -19.5,-11.4096 -11.7326,-6.7868 -23.9885,-14.3683 -32,-19.7953 -3.9248,-2.6586 -29.7299,-18.3535 -46.5,-28.2818 -4.675,-2.7677 -10.525,-6.6705 -13,-8.673 -2.475,-2.0025 -8.3906,-6.2002 -13.1457,-9.3282 -14.4482,-9.5043 -25.34461,-22.9099 -32.10843,-39.5021 C 979.85579,2622.2011 980,2630.5522 980,2359.369 980,2126.9391 980.13329,2106 981.61286,2106 c 0.88707,0 7.74957,3.3073 15.25,7.3494 7.50044,4.0422 20.61214,11.0877 29.13714,15.6567 8.525,4.5689 18.65,10.2108 22.5,12.5375 3.85,2.3267 10.3376,5.8997 14.4168,7.94 4.0793,2.0403 11.2793,6.0688 16,8.9522 4.7208,2.8835 12.9532,7.5498 18.2944,10.3696 5.3411,2.8197 12.9911,7.1105 17,9.5351 4.0088,2.4245 10.2138,5.8778 13.7888,7.6739 3.575,1.796 10.7409,5.7136 15.9241,8.7057 5.1833,2.992 15.3083,8.3841 22.5,11.9822 7.1918,3.5982 14.2075,7.3423 15.5905,8.3204 1.383,0.978 7.233,4.2223 13,7.2096 5.767,2.9872 14.0854,7.4736 18.4854,9.9698 4.4,2.4962 11.825,6.4583 16.5,8.8047 4.675,2.3464 14.125,7.7473 21,12.0019 6.875,4.2546 19.925,11.5603 29,16.235 9.075,4.6747 23.475,12.2079 32,16.7405 8.525,4.5326 24.725,13.0533 36,18.9349 11.275,5.8816 21.625,11.4049 23,12.2741 2.9735,1.8798 64.1781,33.1286 78.5,40.0793 5.5,2.6693 12.025,5.9795 14.5,7.356 2.475,1.3766 9.675,4.9523 16,7.9461 6.325,2.9937 14.2,6.8221 17.5,8.5074 3.3,1.6854 10.725,5.4826 16.5,8.4382 28.4767,14.5745 116.3053,57.4798 117.663,57.4798 0.4385,0 11.1561,5.1417 23.8171,11.426 12.6609,6.2842 35.8449,17.7345 51.5199,25.4449 15.675,7.7105 32.775,16.272 38,19.0256 5.225,2.7537 20.75,10.369 34.5,16.9229 13.75,6.554 34.0997,16.2508 45.2216,21.5485 11.1219,5.2976 20.5363,9.6321 20.9209,9.6321 0.3845,0 6.5848,2.8837 13.7783,6.4082 21.8947,10.7275 56.8684,27.261 60.5792,28.6382 1.925,0.7145 8.225,3.637 14,6.4945 5.775,2.8575 13.875,6.6481 18,8.4234 4.125,1.7754 15.6,7.1903 25.5,12.0332 9.9,4.8429 19.125,9.1346 20.5,9.537 1.375,0.4024 7.7989,3.381 14.2753,6.619 6.4764,3.238 15.1251,7.218 19.2193,8.8444 4.0942,1.6264 13.4204,5.9376 20.7247,9.5804 12.6629,6.3153 18.8179,10.5366 18.7493,12.8588 -0.043,1.4443 -3.3111,3.7189 -14.2237,9.899 -5.0865,2.8806 -13.3575,8.1459 -18.3799,11.7007 -9.2276,6.531 -22.7845,15.4477 -40.2968,26.504 -5.2625,3.3225 -12.4932,8.1345 -16.0682,10.6935 -15.6588,11.2086 -20.4512,14.4877 -36.5,24.9748 -9.35,6.1097 -21.275,13.9179 -26.5,17.3515 -5.225,3.4337 -14.0068,9.0997 -19.5151,12.5912 -5.5083,3.4915 -11.8083,7.6054 -14,9.142 -8.681,6.086 -32.4855,21.5593 -38.0697,24.7457 -6.0252,3.438 -29.6513,18.863 -45.9152,29.977 -4.95,3.3826 -15.3,10.2495 -23,15.2598 -7.7,5.0103 -19.625,12.7851 -26.5,17.2773 -6.875,4.4923 -15.425,9.8837 -19,11.9809 -3.575,2.0973 -8.075,5.0101 -10,6.4729 -1.925,1.4627 -8,5.4121 -13.5,8.7764 -5.5,3.3642 -11.8516,7.4575 -14.1147,9.0962 -2.2631,1.6387 -9.2381,6.0787 -15.5,9.8668 -6.2619,3.788 -14.3103,8.8163 -17.8853,11.1739 -3.575,2.3576 -15.05,9.9321 -25.5,16.8323 -10.45,6.9001 -23.5,15.2349 -29,18.5219 -5.5,3.2869 -11.575,7.2124 -13.5,8.7233 -3.4812,2.7324 -29.5546,17.5017 -33.6375,19.0541 -1.5253,0.5799 -3.8215,0.016 -8.0009,-1.9642 z M 2760.6038,2928.25 c -3.3353,-10.9917 -5.8373,-58.2607 -9.6467,-182.25 -1.8364,-59.7717 -3.3705,-95.7038 -5.9558,-139.5 -2.2422,-37.9841 -4.0852,-74.4443 -5.4844,-108.5 -0.8248,-20.075 -1.7272,-39.2 -2.0053,-42.5 -3.9886,-47.3292 -7.0445,-83.1231 -9.0496,-106 -2.2682,-25.8769 -4.8626,-62.1039 -7.448,-104 -0.577,-9.35 -1.7135,-23.3 -2.5256,-31 -0.8121,-7.7 -2.6137,-27.5 -4.0035,-44 -1.3897,-16.5 -3.4127,-38.325 -4.4955,-48.5 -1.9021,-17.8754 -4.6024,-47.9034 -7.014,-78 -1.3646,-17.0294 -4.3368,-46.5287 -6.398,-63.5 -0.8015,-6.6 -1.9132,-16.275 -2.4703,-21.5 -3.738,-35.0586 -5.464,-52.2535 -8.0804,-80.5 -1.6302,-17.6 -5.0303,-49.1 -7.5558,-70 -2.5255,-20.9 -5.4756,-45.3376 -6.5558,-54.3059 -1.0802,-8.9682 -1.6902,-16.749 -1.3554,-17.2906 0.8947,-1.4478 4.0867,-0.2174 11.9403,4.6026 6.7984,4.1724 47.1934,24.1663 58.7158,29.062 14.2684,6.0623 53.8179,25.4315 68.7842,33.6868 9.075,5.0057 20.2608,10.8396 24.8572,12.9643 4.5965,2.1247 11.9127,5.8806 16.2583,8.3464 4.3456,2.4657 13.8599,7.5616 21.1428,11.324 20.9417,10.8188 42.5058,22.4038 51.7417,27.7975 4.675,2.7302 10.6982,5.8018 13.3848,6.8258 2.6867,1.024 7.4621,3.5275 10.612,5.5634 3.1499,2.0359 13.5517,7.8517 23.1152,12.9241 9.5634,5.0723 18.6058,10.0889 20.0943,11.148 1.4885,1.0591 5.9972,3.4253 10.0195,5.2583 4.0222,1.833 10.7628,5.5847 14.9791,8.3371 4.2163,2.7524 12.3076,7.3851 17.9806,10.2948 5.673,2.9097 12.4464,6.7528 15.0522,8.5402 2.6057,1.7874 10.2557,6.0544 17,9.4821 6.7442,3.4278 15.6373,8.3385 19.7623,10.9126 4.125,2.5741 15.375,9.0991 25,14.4999 9.625,5.4008 24.9799,14.2537 34.1221,19.6731 9.1422,5.4194 16.9198,9.8535 17.2836,9.8535 0.3638,0 5.0338,2.6186 10.3779,5.8191 5.344,3.2005 16.9612,9.9641 25.8159,15.0303 8.8547,5.0662 19.8797,11.7851 24.5,14.9309 l 8.4005,5.7197 0.6856,34.5 c 1.0302,51.8362 0.7733,467.4494 -0.3131,506.5 -1.2341,44.3639 -1.9262,50.9465 -6.334,60.2441 -4.3119,9.0952 -8.5354,15.4121 -14.4289,21.5807 -4.8536,5.0801 -26.407,19.8505 -44.1096,30.2279 -5.775,3.3854 -14.6938,8.7042 -19.8195,11.8196 -5.1257,3.1155 -11.5982,6.8191 -14.3832,8.2304 -2.785,1.4113 -11.4163,6.7454 -19.1805,11.8535 -7.7642,5.1082 -16.481,10.4786 -19.3705,11.9344 -2.8895,1.4557 -9.8645,5.4933 -15.5,8.9724 -5.6355,3.4791 -13.8463,8.2715 -18.2463,10.6497 -4.4,2.3782 -10.025,5.7692 -12.5,7.5354 -2.475,1.7662 -9.8919,6.22 -16.482,9.8973 -6.5901,3.6773 -14.9151,8.4999 -18.5,10.7168 -11.9572,7.3944 -28.4158,16.9438 -37.9976,22.0465 -5.2138,2.7766 -12.4138,6.872 -16,9.1009 -3.5862,2.2288 -16.8704,10.2329 -29.5204,17.7866 -12.65,7.5538 -26.5735,15.9099 -30.9412,18.569 -9.1496,5.5706 -12.3327,7.4421 -26.0588,15.3218 -5.5,3.1573 -13.825,8.0045 -18.5,10.7715 -4.675,2.767 -10.975,6.4779 -14,8.2465 -25.597,14.965 -34.712,20.4136 -36,21.5193 -1.8217,1.5638 -25.1257,15.4553 -32.7756,19.5376 -6.2767,3.3494 -9.8437,3.7484 -10.6206,1.1881 z M 1505.5,2285.1663 c -9.35,-4.8231 -19.4444,-10.2452 -22.4321,-12.0492 -2.9876,-1.8039 -9.4972,-5.3216 -14.4657,-7.8169 -4.9685,-2.4953 -15.7991,-8.3817 -24.068,-13.0808 -8.2688,-4.6992 -28.9842,-15.606 -46.0342,-24.2374 -17.05,-8.6315 -34.375,-17.5112 -38.5,-19.7326 -6.6494,-3.581 -41.6786,-21.7118 -82.5,-42.7013 -21.4432,-11.0256 -45.5405,-23.9125 -50.0942,-26.7896 -2.2518,-1.4228 -9.6768,-5.3806 -16.5,-8.7952 -6.8232,-3.4146 -13.5955,-7.0498 -15.0495,-8.0782 -1.454,-1.0285 -9.329,-5.2987 -17.5,-9.4894 -8.171,-4.1907 -15.3183,-7.9908 -15.883,-8.4447 -0.5647,-0.4539 -8.8897,-4.9762 -18.5,-10.0496 -42.37,-22.3675 -53.2091,-28.2662 -72.9733,-39.7124 -5.225,-3.026 -15.35,-8.7218 -22.5,-12.6574 -18.4269,-10.1426 -63.01916,-38.1936 -66.92503,-42.0995 -1.42591,-1.4259 -1.57489,-28.4712 -1.57413,-285.7535 5.4e-4,-185.9864 0.35427,-287.9057 1.02371,-294.9652 0.56258,-5.9326 2.09308,-14.1567 3.40111,-18.2757 2.40106,-7.561 10.86019,-23.5639 15.1961,-28.7479 3.82614,-4.5746 32.88434,-24.8842 55.47004,-38.7696 11.5586,-7.1061 21.3708,-12.9202 21.8049,-12.9202 0.4341,0 5.7357,-3.0988 11.7814,-6.8863 6.0457,-3.7874 16.1288,-9.6883 22.407,-13.1132 6.2782,-3.4248 12.5399,-7.0011 13.9149,-7.9473 1.375,-0.9462 8.125,-4.7996 15,-8.5631 6.875,-3.7634 14.975,-8.5027 18,-10.5315 3.025,-2.0289 9.1,-5.5074 13.5,-7.73 4.4,-2.2225 13.9401,-7.5707 21.2003,-11.8848 7.2602,-4.3141 16.7102,-9.9107 21,-12.4369 4.2898,-2.5262 10.403,-6.1262 13.5849,-8 5.3411,-3.1454 33.9895,-19.9115 47.4524,-27.7709 7.5108,-4.3847 29.2835,-17.3449 68.2624,-40.6333 17.325,-10.351 38.25,-22.7156 46.5,-27.4768 8.25,-4.7612 19.6132,-11.6519 25.2515,-15.3127 5.6383,-3.6608 15.7633,-9.6738 22.5,-13.3622 6.7367,-3.6884 13.9527,-7.7675 16.0357,-9.0646 2.083,-1.2972 4.1494,-2.1346 4.592,-1.8611 0.4426,0.2736 1.1168,40.4523 1.4981,89.2861 0.3813,48.8337 1.1153,103.8636 1.6311,122.2886 0.5158,18.425 1.4013,54.875 1.9678,81 2.6618,122.7667 4.107,160.8833 8.5692,226 0.2827,4.125 1.6366,28.1074 3.0086,53.2942 1.3721,25.1868 3.3687,55.1118 4.437,66.5 1.0682,11.3882 2.6393,32.4058 3.4914,46.7058 0.852,14.3 2.2335,37.475 3.07,51.5 0.8365,14.025 2.1597,32.025 2.9406,40 0.7808,7.975 2.3653,25.975 3.5212,40 1.1559,14.025 2.9694,33.7219 4.03,43.771 1.0607,10.049 3.0631,33.224 4.4498,51.5 1.3867,18.2759 3.861,46.504 5.4984,62.729 1.6375,16.225 3.853,38.275 4.9233,49 1.0704,10.725 3.306,31.875 4.9681,47 1.6621,15.125 4.1815,40.325 5.5987,56 1.4172,15.675 3.3115,36.6155 4.2096,46.5343 1.7169,18.961 1.4346,23.4874 -1.4612,23.4334 -0.952,-0.018 -9.3809,-3.9784 -18.7309,-8.8014 z M 3225,1930.938 c -2.475,-1.6794 -9.45,-5.5504 -15.5,-8.6022 -6.05,-3.0518 -12.5123,-6.6867 -14.3607,-8.0776 -3.2015,-2.4091 -17.701,-10.7024 -46.9361,-26.8461 -7.3132,-4.0384 -14.5132,-8.2001 -16,-9.2483 -1.4868,-1.0481 -9.2282,-5.5059 -17.2032,-9.9061 -14.0348,-7.7437 -17.6603,-9.7741 -38,-21.2809 -5.225,-2.956 -14.675,-8.1614 -21,-11.5675 -6.325,-3.4061 -16.225,-8.892 -22,-12.1908 -5.775,-3.2988 -14.55,-8.1262 -19.5,-10.7275 -4.95,-2.6013 -14.175,-7.7715 -20.5,-11.4893 -6.325,-3.7178 -18.025,-10.0219 -26,-14.009 -7.975,-3.9871 -16.3,-8.4699 -18.5,-9.9618 -2.2,-1.492 -9.1734,-5.3236 -15.4964,-8.5147 -6.323,-3.1912 -13.073,-6.7944 -15,-8.0071 -1.927,-1.2127 -9.8036,-5.4918 -17.5036,-9.5091 -7.7,-4.0173 -15.69,-8.3679 -17.7555,-9.6681 -2.0655,-1.3001 -9.4905,-5.194 -16.5,-8.6529 -7.0095,-3.459 -31.1945,-15.8807 -53.7445,-27.6037 -22.55,-11.723 -45.05,-23.3011 -50,-25.729 -4.95,-2.428 -10.8,-5.3613 -13,-6.5185 -2.2,-1.1573 -12.325,-6.3566 -22.5,-11.5542 -10.175,-5.1975 -19.175,-10.0389 -20,-10.7585 -0.825,-0.7196 -8.475,-4.7197 -17,-8.8891 -8.525,-4.1694 -23.6,-11.7953 -33.5,-16.9465 -9.9,-5.1512 -28.125,-14.5287 -40.5,-20.8388 -12.375,-6.3102 -31.275,-16.0323 -42,-21.6047 -29.5469,-15.3518 -75.9858,-38.236 -77.5922,-38.236 -0.338,0 -15.7556,-7.4857 -34.2612,-16.6348 -18.5056,-9.1492 -38.5966,-18.8486 -44.6466,-21.5542 -6.05,-2.7057 -13.25,-6.1768 -16,-7.7137 -2.75,-1.5368 -8.825,-4.4679 -13.5,-6.5136 -4.675,-2.0456 -15.25,-7.034 -23.5,-11.0853 -36.4044,-17.8769 -55.1017,-26.7034 -62.7657,-29.6301 -4.5289,-1.7295 -11.1593,-4.8357 -14.7343,-6.9028 -3.575,-2.067 -11.0133,-5.5466 -16.5296,-7.7324 -5.5162,-2.1858 -16.5412,-7.1299 -24.5,-10.9869 -28.909,-14.0102 -48.6381,-23.1807 -56.4704,-26.2488 -4.4,-1.7236 -12.5,-5.5201 -18,-8.4368 -5.5,-2.9167 -15.5203,-7.6665 -22.2672,-10.5552 -6.747,-2.8887 -12.5337,-5.6832 -12.8593,-6.21 -0.8801,-1.424 4.069,-6.1608 12.5762,-12.0366 4.1527,-2.8683 11.3753,-8.2817 16.0503,-12.0298 4.675,-3.7482 12.325,-9.3492 17,-12.4469 4.675,-3.0976 11.2,-7.7253 14.5,-10.2838 3.3,-2.5585 9.825,-7.1753 14.5,-10.2597 4.675,-3.0843 15.25,-10.3898 23.5,-16.2345 8.25,-5.8447 17.5942,-12.2866 20.7648,-14.3154 3.1706,-2.0288 9.2456,-6.1392 13.5,-9.1342 4.2544,-2.9951 14.4852,-9.7757 22.7352,-15.0681 8.25,-5.2924 29.625,-19.3017 47.5,-31.1318 53.6647,-35.5166 80.0406,-52.7909 97.4985,-63.8546 9.1126,-5.775 21.3909,-13.6328 27.285,-17.4619 5.8941,-3.829 14.3909,-9.229 18.8818,-12 4.4909,-2.7709 14.6159,-9.3819 22.5,-14.6909 7.8841,-5.3091 18.3847,-11.9664 23.3347,-14.794 4.95,-2.8277 11.7737,-7.0339 15.1638,-9.3472 3.3901,-2.3133 9.6901,-6.3674 14,-9.0092 9.5668,-5.864 24.4665,-15.2872 37.8362,-23.9293 5.5,-3.5552 14.275,-9.0266 19.5,-12.1586 5.225,-3.1321 13.0759,-8.1978 17.4464,-11.2571 7.0658,-4.946 8.3681,-5.5059 11.7516,-5.0521 6.0451,0.8108 14.6915,4.6991 22.802,10.2539 4.125,2.8252 12.225,7.7424 18,10.9271 5.775,3.1848 12.75,7.2508 15.5,9.0358 2.75,1.7849 7.9908,4.8293 11.6462,6.7652 3.6554,1.936 11.3054,6.4185 17,9.9612 5.6946,3.5426 15.3038,9.0591 21.3538,12.2588 6.05,3.1997 12.2277,6.8335 13.7281,8.075 1.5005,1.2416 5.3255,3.4821 8.5,4.9791 3.1746,1.4969 8.9219,4.7469 12.7719,7.2222 3.85,2.4753 11.5,7.4092 17,10.9643 9.4945,6.137 23.0386,14.1673 46.5,27.5697 5.775,3.299 13.65,7.942 17.5,10.3176 3.85,2.3757 10.15,5.9652 14,7.9767 3.85,2.0115 8.8,4.8736 11,6.3602 2.2,1.4866 9.85,5.9924 17,10.013 7.15,4.0206 15.925,9.2389 19.5,11.5963 3.575,2.3574 9.875,6.0321 14,8.166 10.7443,5.5581 17.2024,9.3115 19.5,11.3333 1.1,0.9679 7.175,4.3297 13.5,7.4705 6.325,3.1408 14.5558,7.6807 18.2907,10.0886 3.7348,2.4079 9.5543,5.7731 12.932,7.4782 3.3778,1.7051 7.747,4.1098 9.7094,5.3436 1.9623,1.2339 8.0679,4.8526 13.5679,8.0417 11.8247,6.8564 17.2336,10.098 28,16.7809 4.4,2.7311 10.9651,6.4143 14.5891,8.1848 3.624,1.7705 8.574,4.5808 11,6.2452 2.426,1.6643 8.4609,5.1906 13.4109,7.8361 4.95,2.6455 13.725,7.809 19.5,11.4745 5.775,3.6656 12.0108,7.1792 13.8573,7.8081 1.8465,0.6289 6.0039,2.95 9.2386,5.1581 3.2348,2.208 6.1334,4.0146 6.4414,4.0146 0.3079,0 3.3505,1.8594 6.7613,4.1321 3.4108,2.2726 8.2264,5.0042 10.7014,6.0703 2.475,1.066 6.7526,3.6382 9.5059,5.716 2.7532,2.0778 6.3532,4.4756 8,5.3285 1.6467,0.853 5.9191,3.8919 9.4941,6.7533 3.575,2.8613 9.5755,7.2672 13.3345,9.7909 8.9624,6.017 12.6462,10.4901 18.653,22.6495 8.785,17.7832 8.1819,8.9543 9.0548,132.5594 1.0041,142.1762 0.047,414.0017 -1.4572,413.9957 -0.5968,0 -3.1101,-1.3783 -5.5851,-3.0577 z M 1569.5952,1658.25 c -0.6313,-2.0478 -4.073,-58.5603 -5.5877,-91.75 -0.5773,-12.65 -1.7015,-33.575 -2.4981,-46.5 -2.5774,-41.8156 -3.4469,-65.4778 -4.4832,-122 -1.8388,-100.2955 -3.1213,-160.0511 -4.0777,-190 -0.5182,-16.225 -1.2198,-59.65 -1.5592,-96.5 -0.5138,-55.7791 -0.3888,-67.2816 0.7468,-68.6816 0.7501,-0.9249 5.4139,-3.8786 10.3639,-6.5638 12.5009,-6.7813 42.1686,-23.987 47,-27.2575 2.2,-1.4892 7.6,-4.6396 12,-7.0008 4.4,-2.36123 12.275,-6.84988 17.5,-9.97478 13.7225,-8.20696 42.8446,-25.23018 62.5,-36.53416 18.1884,-10.46029 41.2868,-23.97465 53.5,-31.30163 4.125,-2.47468 12.7512,-7.53362 19.1693,-11.24209 6.4181,-3.70846 17.2181,-10.32349 24,-14.70006 6.7819,-4.37658 16.8307,-10.35259 22.3307,-13.28003 5.5,-2.92744 12.475,-6.98146 15.5,-9.00892 3.025,-2.02746 9.7236,-5.80685 14.8857,-8.39864 5.1621,-2.59179 12.8121,-6.85935 17,-9.48347 4.1879,-2.62412 12.2309,-7.2798 17.8734,-10.34595 5.6425,-3.06614 13.2925,-7.44754 17,-9.73642 3.7075,-2.28889 11.6909,-6.98724 17.7409,-10.44079 13.5175,-7.71626 25.4725,-14.80894 36,-21.35819 4.4,-2.73727 13.4,-8.01963 20,-11.73858 6.6,-3.71894 13.35,-7.75729 15,-8.97409 1.65,-1.21681 8.4,-5.27412 15,-9.01625 6.6,-3.74213 14.475,-8.44524 17.5,-10.45137 3.025,-2.00612 8.65,-5.37722 12.5,-7.49132 3.85,-2.11411 9.614,-5.60564 12.8089,-7.75896 14.104,-9.50594 31.9958,-15.54615 48.7664,-16.46339 23.6325,-1.29254 45.2652,5.05279 62.7642,18.41011 2.4144,1.84295 7.0315,4.66148 10.2602,6.2634 3.2287,1.60191 7.7896,4.22415 10.1353,5.82719 5.2533,3.58998 18.0927,11.33756 22.6168,13.64743 1.8435,0.94124 7.3435,4.26359 12.2222,7.383 4.8787,3.11941 17.01,10.39666 26.9583,16.17166 9.9484,5.775 23.3484,13.5824 29.7778,17.34977 6.4295,3.76737 17.0899,9.79321 23.6899,13.39074 11.6489,6.34958 23.7499,13.30734 34,19.54911 2.75,1.6746 11.8722,7.02 20.2716,11.87866 8.3994,4.85866 17.1744,10.03802 19.5,11.5097 2.3256,1.47167 9.2172,5.47005 15.3147,8.88529 6.0975,3.41524 17.9305,10.53843 26.2955,15.82932 8.365,5.2909 17.3575,10.70847 19.9833,12.03906 2.6258,1.33058 9.0178,5.0067 14.2045,8.16915 5.1867,3.16245 13.7054,8.07804 18.9304,10.92353 5.225,2.84549 14.45,8.06552 20.5,11.60008 6.05,3.53455 13.925,7.93993 17.5,9.78973 3.575,1.84981 8.4103,4.67097 10.7451,6.26926 2.3349,1.59829 9.0849,5.05801 15,7.68827 10.1152,4.49783 20.2447,10.28613 26.5049,15.14572 5.7842,4.49003 2.8809,7.74487 -16.25,18.21811 -11.9339,6.5332 -25.6599,14.5089 -41.5,24.1142 -2.75,1.6676 -10.6947,6.485 -17.655,10.7052 -6.9602,4.2203 -16.0122,9.8719 -20.1155,12.5592 -7.2458,4.7453 -15.2265,9.6801 -38.1655,23.5995 -6.0852,3.6925 -13.089,8.1166 -15.564,9.8314 -5.1971,3.6007 -27.2969,17.6239 -44,27.9197 -6.325,3.8987 -15.55,9.9957 -20.5,13.5489 -7.7638,5.5729 -24.6725,16.6217 -41.2443,26.9505 -9.4287,5.8767 -86.3571,56.4249 -100.2557,65.8761 -20.4214,13.8868 -35.9898,24.3774 -44.0163,29.6598 -5.4321,3.575 -16.5381,11.0345 -24.6801,16.5766 -8.142,5.5421 -20.6536,14.0185 -27.8036,18.8364 -7.15,4.8179 -13.9,9.5698 -15,10.5598 -1.1,0.99 -6.05,4.0672 -11,6.8381 -4.95,2.771 -10.8,6.4159 -13,8.0998 -2.2,1.6839 -9.625,6.9083 -16.5,11.6099 -30.8118,21.0711 -38.468,26.4888 -48.3467,34.2115 -5.7917,4.5276 -13.2963,10.0198 -16.6769,12.2048 -3.3807,2.185 -8.9208,6.0362 -12.3115,8.5582 -21.804,16.2177 -36.7248,26.8248 -60.4943,43.0049 -4.848,3.3 -10.5821,7.4064 -12.7425,9.1253 -2.1605,1.7189 -8.4415,6.2189 -13.9579,10 -5.5164,3.7811 -14.2914,9.9265 -19.5,13.6565 -5.2086,3.7299 -16.2202,11.5068 -24.4702,17.2819 -8.25,5.7751 -17.7,12.5381 -21,15.0291 -5.9459,4.488 -14.355,10.5104 -34.3594,24.6071 -5.6977,4.0151 -13.5727,9.8332 -17.5,12.9293 -3.9273,3.0961 -9.5834,7.0693 -12.569,8.8293 -2.9857,1.76 -7.2607,4.6903 -9.5,6.5118 -2.2394,1.8215 -7.8966,5.9193 -12.5716,9.1062 -4.675,3.1869 -11.2,7.8913 -14.5,10.4543 -3.3,2.5629 -9.6,7.049 -14,9.9691 -4.4,2.92 -10.0271,7.1521 -12.5048,9.4046 -2.4776,2.2525 -9.0026,7.3456 -14.5,11.3179 -5.4973,3.9723 -12.842,9.3723 -16.3214,12 -10.4683,7.9057 -23.9298,17.6258 -37.6738,27.203 -7.15,4.9824 -14.35,10.1241 -16,11.4261 -10.4528,8.2483 -34.3939,25.6485 -35.2901,25.6485 -0.5913,0 -1.3179,-0.7875 -1.6147,-1.75 z"
         id="path2" />
    </g>
  </g>
</svg>
